<svg width="213" height="94" viewBox="0 0 213 94" fill="none" xmlns="http://www.w3.org/2000/svg">
<path opacity="0.63" d="M61.6006 36.597C61.7884 36.5499 61.9762 36.5656 62.164 36.6597C62.2109 36.8164 62.2266 36.9731 62.2266 37.1299C61.8823 37.1299 61.6632 36.9418 61.6006 36.597Z" fill="white"/>
<path d="M39.5645 89.7634C40.9104 89.7321 38.8445 89.4186 40.4565 89.6537C40.2687 89.7948 40.0027 89.8888 39.5645 89.7634Z" fill="white"/>
<path d="M38.8295 85.2021C38.4696 80.7351 40.7232 75.3275 41.8656 70.7037C42.0378 70.1708 42.2882 71.0172 42.6325 69.7946C43.102 67.5062 44.3071 64.7476 45.8251 62.036C47.3745 59.3401 49.3464 56.7539 51.1931 54.6379L51.1149 54.9984C51.8192 54.1991 52.2417 52.8981 52.9773 52.036C53.0555 52.0831 52.8677 52.4122 53.1181 52.2868C53.0712 51.8793 54.3232 50.6411 54.4797 50.1395C54.8553 49.873 54.9961 50.0455 55.4656 49.7006L55.6691 49.011C56.3108 47.1458 58.7052 45.8762 60.2859 43.964C60.2546 44.105 60.0981 44.3088 60.2859 44.2304C62.8995 41.221 66.9842 38.3213 70.7559 35.9546C70.662 36.1427 70.6307 36.4091 70.9124 36.3934C70.9124 35.9859 72.0548 35.2022 73.0877 34.6066C73.7294 34.6693 74.7467 33.3527 76.1239 32.9608L76.0456 33.0862C76.8281 32.3182 77.5167 32.616 78.1114 31.895H78.8314C79.0661 31.2681 80.3025 31.5502 81.0224 31.0329L80.9598 30.9389C81.6797 30.5471 82.1648 30.6411 82.8378 30.3119L82.916 30.3433C84.528 29.638 85.5922 29.6536 85.4357 29.2775C86.1087 29.4029 83.8551 29.9044 84.9036 30.0612C90.256 27.9452 96.2031 27.0047 101.978 26.7383C102.635 26.848 103.058 26.9264 103.214 27.0518C103.793 26.9734 105.374 26.942 105.906 26.7696C105.718 26.7696 106.282 26.9734 106.579 27.0047C107.628 27.1928 107.737 26.6129 108.895 26.848C108.426 26.9264 108.269 27.0361 108.41 27.1928C109.412 26.942 110.726 27.0831 111.885 27.0988C111.697 27.1458 111.415 27.1615 111.446 27.2869C112.745 27.0518 113.747 27.5847 114.874 27.4906L114.436 27.663C116.188 28.1489 115.015 27.2555 116.533 27.616C116.157 27.6317 116.267 27.7414 116.188 27.8198C117.675 27.6003 119.976 28.0706 121.431 28.1489C121.337 28.1646 121.353 28.2273 121.353 28.2273C122.918 28.4154 124.514 28.7916 126.251 28.8856C126.862 29.0894 125.97 29.4029 127.613 29.5753C127.613 29.1207 130.43 29.8261 129.538 29.1677C130.931 29.4499 133.122 29.9828 134.092 29.9985C133.435 30.0612 134.687 30.6568 133.513 30.5L134.343 30.9232C134.186 31.08 133.45 30.7038 133.685 30.9859C134.264 31.0643 136.001 31.2054 136.502 31.3778C137.629 31.3151 138.725 31.0173 140.477 31.3778C139.617 31.3464 140.822 31.9734 140.243 31.9107C141.119 31.8323 141.995 31.7696 142.872 31.7226C143.451 31.8793 142.888 32.0988 143.748 32.2398C143.748 32.1144 144.124 32.1615 144.406 32.1458C144.609 32.2398 146.8 32.8668 146.878 33.3684C147.066 33.6191 145.939 33.1176 146.503 33.4938C147.52 33.8856 147.63 33.7759 148.647 34.1834V34.2461C149.273 34.6066 150.681 34.9358 150.055 34.4028C149.601 34.1834 150.118 34.732 149.492 34.3088C150.071 34.2618 151.276 34.7477 152.262 35.2336C151.886 35.1395 151.886 35.2649 151.683 35.3119C153.17 35.6411 154.609 36.2994 156.128 36.989C156.253 36.8166 155.392 37.0204 155.235 36.801C156.941 38.0862 159.242 38.6662 160.478 40.0141C160.212 39.8887 160.51 39.6693 160.494 39.732C161.339 40.3119 161.12 40.547 161.746 40.8292C161.699 41.0173 162.466 41.2524 163.061 41.5972C163.421 41.6912 163.154 41.7696 162.654 41.4405C163.53 41.848 166.801 43.8386 168.397 45.3589C168.429 45.2336 169.743 45.8135 170.134 46.127L169.806 46.2367C170.072 46.6442 171.167 47.2241 171.089 47.4749C172.153 47.8511 167.615 45.2179 168.929 45.8762C169.086 46.2837 170.807 46.7382 170.338 46.848C171.152 47.4436 172.122 47.7884 172.732 48.5721C172.529 48.3683 171.84 48.384 172.513 48.8699C173.687 49.7006 172.92 49.011 173.906 49.6379L174.563 49.9984C174.767 49.8103 175.565 50.8135 175.33 50.2492C175.33 50.5313 177.067 51.4404 176.676 51.7069L176.301 51.8636C176.801 52.2398 177.334 52.2085 177.819 52.3965C177.866 52.4749 177.944 52.6317 177.881 52.663C178.304 52.3025 179.008 53.6505 179.838 53.8385C180.714 54.8417 182.326 56.1426 182.529 56.8323C183.359 57.4436 184.157 58.0078 184.846 58.9796C184.658 58.8385 184.423 58.6034 184.298 58.6191C184.658 59.2774 184.893 59.3244 185.378 59.7947C185.237 59.7163 186.051 61.1426 186.364 61.9263C187.068 62.663 187.115 62.2241 187.318 62.2084C187.397 63.2743 189.196 64.4812 189.306 65.7821C189.071 65.5 188.367 64.5909 188.649 65.4059C188.617 66.4718 189.885 66.8793 190.276 68.3683L190.527 67.8511C190.574 68.5721 191.638 69.826 191.153 69.8417C191.497 70.2649 191.638 71.5658 191.982 71.268C192.483 73.7131 193.766 77.13 193.156 78.7758C193.218 78.9169 193.265 79.3714 193.281 79.7006C193.297 80.0297 193.312 80.2805 193.422 80.1708C193.719 79.3714 193.203 78.9482 193.359 78.7601C193.406 79.0736 193.547 79.2617 193.61 79.2774C193.578 80.4372 193.281 81.1739 193.125 80.1394C192.999 80.688 192.874 81.0642 192.733 81.409C192.514 81.9106 192.326 82.3181 191.904 82.7413C191.685 82.9451 191.403 83.1332 190.996 83.2899C190.605 83.4467 190.041 83.5407 189.635 83.5407C189.744 83.3526 189.509 83.3056 188.899 83.3683L187.741 83.7288C186.364 83.7288 186.943 83.3526 186.896 83.0548C186.176 83.1332 185.268 83.1645 184.955 83.4153L184.047 83.0705C184.705 83.3213 183.453 83.2742 183.124 83.3683L183.468 83.2742C183.328 83.1488 182.482 83.2742 182.06 83.3213C182.169 83.5093 183.03 83.5407 183.515 83.572C183.155 83.7288 182.561 83.7131 182.076 83.9012C182.216 83.6034 180.87 83.7445 180.291 83.7445C179.618 83.7131 179.556 84.0423 179.368 84.0423C179.337 83.8855 178.273 84.0736 178.789 83.8228C179.008 83.7601 179.321 83.9482 179.681 83.7915C179.243 83.6974 179.274 83.431 178.366 83.6661C177.693 83.8385 178.57 84.246 177.271 84.1206C177.615 84.0266 177.662 83.9012 177.928 83.7915L176.708 83.6974L176.676 83.9639C176.504 83.9012 176.614 83.8699 176.535 83.8385C176.191 84.1363 174.673 84.0109 174.423 84.3401C173.812 84.4028 173.124 84.2147 172.529 84.2147L172.638 84.1833C171.919 84.0579 170.964 84.199 170.369 84.4184L170.401 84.3557C170.009 84.3557 169.086 84.4341 168.601 84.6222C167.599 84.4655 168.209 83.6191 167.13 84.0109C166.128 84.0736 165.58 84.5752 166.003 84.7319C164.187 84.6379 162.153 85.1708 160.463 84.826C160.212 84.9513 160.369 85.0141 159.852 85.0924C157.192 85.0924 154.265 85.6724 152.137 85.2335C152.904 85.0767 152.168 84.967 152.137 84.8103C151.511 85.0767 151.354 84.5909 151.151 85.014C151.229 85.2492 151.166 85.3745 151.918 85.4372C150.337 85.641 147.943 85.7507 147.05 85.5626C147.489 85.6567 147.16 85.7507 146.816 85.8291C146.91 85.4372 145.736 85.4216 144.859 85.6097L144.75 85.8604L144.171 85.641C143.842 85.7351 143.827 86.1582 142.934 85.9702C142.888 85.8761 142.825 85.7821 142.668 85.7351C141.761 85.9702 140.493 86.362 139.491 86.2053L138.662 85.8918C138.239 85.9545 137.535 86.1896 138.286 86.2523C136.58 86.1269 135.501 86.1426 134.937 85.8604C132.058 86.7225 127.832 86.9576 124.452 87.0517L124.546 86.8636C123.622 86.7382 124.092 87.1927 123.45 87.0987C123.732 86.9106 122.746 86.7539 123.45 86.5187C122.135 86.3934 121.791 86.9106 120.946 87.0203C120.836 87.2554 121.619 86.8322 121.462 87.1457C121.322 87.2397 119.647 87.0517 119.475 87.4122C119.146 87.2868 119.381 87.0203 119.553 86.8636L118.771 87.0673C117.785 86.6912 120.946 86.2209 119.913 85.7664L119.177 85.8604C118.458 85.5156 121.102 85.3589 119.256 85.3119C118.473 85.5156 117.8 86.0642 118.52 86.1896C116.861 86.362 117.785 87.0673 116.001 87.13C115.5 86.9419 117.425 87.0203 117.065 86.7382C116.204 86.4874 115.39 86.9733 114.623 86.9106C115.453 87.0046 114.78 87.3965 114.232 87.4905C113.309 87.3651 114.811 87.13 113.512 87.1457C113.309 87.3651 112.135 87.5689 113.168 87.663C112.73 88.1488 111.822 87.6003 111.133 87.9921C110.695 87.6786 112.417 87.1771 111.008 87.083C111.243 87.3808 109.287 87.5846 110.053 88.0234C109.49 87.9608 109.427 87.71 109.819 87.5062C109.021 87.3495 107.925 88.1645 107.628 87.5532L107.377 87.8824C107.127 87.7883 106.767 87.7256 106.36 87.5689C105.656 87.6002 104.138 88.1018 104.169 87.6159C103.95 87.6786 102.354 87.7256 102.98 88.0391C103.981 88.1959 104.106 87.7413 104.685 88.1645C103.966 87.8197 103.261 88.2742 102.698 88.431L102.604 88.2429C102.26 88.3369 101.477 88.3213 101.274 88.5407C101.524 88.4153 101.383 88.3056 101.117 88.2742L100.773 88.572C99.3957 88.7758 100.429 88.0861 99.0827 88.2272L100.1 87.9607C99.8808 88.0234 99.4113 87.7727 98.7697 87.8981C98.5349 88.1645 98.0811 88.5093 97.862 88.7131C97.1108 88.8542 97.502 88.431 96.7665 88.7288L97.7368 88.3683C97.8776 88.2742 97.0638 87.9608 96.0465 88.0234C95.4049 88.1488 94.4189 88.572 95.4362 88.6661C94.9197 88.6974 94.1998 88.572 94.6067 88.3526C93.4643 88.4937 94.7632 88.6191 93.7773 88.8385C93.3704 88.6818 92.0871 88.4937 91.3045 88.2742L92.3218 87.7883L91.6332 87.8197C92.5096 87.4278 91.1637 87.5689 91.6645 87.1771C91.195 87.1457 90.6316 87.2868 90.1777 87.4122C91.5862 87.9451 88.6597 88.2899 89.0822 88.8071C87.2042 89.0423 87.8459 87.5532 85.9052 88.478C86.2339 88.6034 85.3262 89.0579 86.4999 88.8385C85.3262 88.8385 85.7174 89.4184 84.3246 89.2617C85.3418 88.9952 83.1978 88.7601 84.6689 88.384C84.575 88.572 85.4983 88.478 85.7331 88.4153C85.2323 88.2272 85.8113 87.8667 84.6063 87.9294C83.8707 88.0078 82.8691 88.0705 83.0256 88.3369C83.0726 88.6504 84.1524 88.2586 83.6829 88.5877C82.2274 88.7601 81.9614 88.3056 81.3823 88.8855C82.3057 88.8071 82.5561 89.1049 82.5404 89.3244L81.4762 89.4968L81.6797 89.2774C79.9582 89.2147 81.1945 89.6692 79.52 89.7006L78.7218 89.3244C79.0974 88.9639 81.1476 89.3714 80.8346 88.8071C79.7547 88.8385 79.3948 89.1363 78.3775 89.0423C78.5966 88.9796 78.9096 88.9482 79.1444 88.9012C78.7531 88.9012 78.3306 88.1645 76.8125 88.6817C76.0143 88.8855 76.609 88.9012 76.5934 89.105C74.8562 89.246 74.3398 89.4968 73.2286 89.5752C73.4477 89.152 71.241 89.6222 72.4617 89.152C73.0408 89.3714 75.5605 89.2303 76.1552 88.8071C75.4979 88.3526 77.5324 88.8071 77.8767 88.3056C76.4838 88.3526 76.5308 87.8667 76.296 87.5689C75.9048 87.5689 75.5448 87.71 75.3101 87.7727C75.1536 88.0861 75.67 88.0548 75.7013 88.3526C74.1363 88.3526 72.6495 88.572 71.8044 88.9012C71.2723 88.7758 71.4288 88.478 72.0392 88.4153C70.1925 88.5877 68.2049 88.6347 66.4364 88.6347C67.5945 89.0736 64.4801 88.8385 65.2627 89.2147C66.2173 89.2774 67.0311 89.5908 66.5303 89.826C65.9356 89.826 66.5303 89.6065 66.2956 89.5125C65.56 89.8103 65.1062 89.1363 64.3862 89.5908C66.0765 89.3557 64.6992 88.9796 64.9966 88.5877C63.7759 88.8542 65.0436 88.3213 63.8385 88.3683C62.6334 88.6347 61.1467 88.8698 59.7851 89.0109C58.0792 88.7288 55.4813 89.199 53.9632 89.293C53.1651 89.1363 53.6815 88.6818 52.8208 88.6504C51.8035 88.7131 53.5876 89.0736 52.0852 88.9482L52.2261 88.8542C51.7722 88.9796 49.4716 88.6818 49.0491 89.3244L49.4873 88.8385C49.2056 88.8072 48.9552 88.9325 48.7204 88.9952C48.7048 88.8385 48.3761 88.7131 48.83 88.6034C47.891 88.3213 46.8894 88.7444 45.8877 88.8071L46.545 89.0579C44.8392 89.3557 43.6654 89.1363 42.0065 89.3087L42.0534 89.0423L41.0675 89.246C41.3022 88.9796 40.3945 88.8385 39.8781 89.0893L42.4291 88.3056C43.149 88.431 41.6622 88.6661 42.116 88.9169C42.5073 89.1363 44.041 88.9952 44.2758 88.7131C43.6811 88.7131 43.6654 88.7758 43.2116 88.8855C43.0081 88.525 43.9002 88.4937 44.3384 88.2272C44.0254 88.2586 43.5872 88.1645 43.5246 88.2899C44.1193 88.0705 44.7296 88.0234 45.7469 87.9607C45.0739 88.1332 46.1225 88.1802 45.8721 88.2899C45.9347 87.9607 46.905 87.804 48.157 87.851C49.0647 88.1959 50.4889 87.4905 51.9444 87.5376C51.3653 87.8981 50.6297 88.1959 49.7533 88.384C50.661 88.5093 50.7706 88.3212 51.6783 88.4623C52.1009 88.1959 52.4139 87.7883 53.5876 87.5846L53.6659 87.8354C54.7301 87.663 54.7144 87.2868 56.0917 87.3024C58.4392 87.3024 60.8493 87.2084 62.6334 87.1614L62.7117 87.4122C63.682 86.8322 66.0139 87.0673 67.3441 86.7695C69.6291 86.9106 72.2739 86.2993 73.4633 86.6755C77.4698 86.2993 80.9754 85.9545 85.1384 85.8604L84.4498 86.2523C85.1853 85.9545 84.9349 86.4404 85.6705 86.3463C84.8254 86.0956 86.6721 85.9231 87.1729 85.688C89.0353 85.8761 91.3984 85.4686 93.0261 85.1394L93.1043 85.3902C94.7476 84.8573 96.7508 85.1708 98.8166 85.1394C99.0514 85.2335 99.4426 85.4529 100.053 85.3902C101.164 84.9357 101.743 84.9357 103.386 84.6222C104.592 84.5595 106.548 84.5752 107.769 84.6692C112.26 83.9012 116.893 84.0423 121.572 83.4937L121.932 83.7758C126.455 82.9451 132.089 83.2586 135.954 82.757L135.61 83.2742C136.831 83.3683 138.38 83.0235 138.052 82.6786C139.288 82.7727 141.088 82.3025 141.886 82.6786C143.138 82.71 143.404 82.3808 144.437 82.2711C146.941 82.3495 147.88 82.2711 150.227 82.0517H149.648C149.398 82.1614 149.382 82.3808 149.977 82.3808C150.853 82.2084 153.217 82.3808 152.309 81.8166C154.844 82.0517 158.162 81.268 160.635 81.6128C160.416 81.4561 161.042 81.3934 161.292 81.2837C163.499 81.1739 165.831 81.3934 167.583 81.0485C167.943 81.1112 167.036 81.3463 167.943 81.3307C168.476 81.2523 167.943 81.1112 168.601 81.0015C172.153 80.5313 175.862 80.9858 179.102 80.7507C181.277 80.5313 183.484 80.3746 185.706 80.2648C186.818 80.2021 187.913 80.1551 189.009 80.1081C189.275 80.1081 189.478 80.0768 189.682 80.0454C189.791 80.0297 189.822 80.0297 189.885 80.0141C189.995 79.9827 190.12 79.92 190.182 79.8103C190.229 79.7476 190.245 79.6692 190.245 79.5909V79.4655L190.214 79.199C190.12 78.5564 190.026 77.9137 189.901 77.2711L190.026 77.3025C189.29 75.688 189.525 73.1489 188.383 72.036C188.351 71.6128 187.866 70.5313 188.195 70.7351C187.397 69.5595 186.865 66.989 185.425 65.4686C185.503 65.641 185.581 65.7194 185.738 65.8761C184.908 63.9639 183.562 62.6943 182.326 60.9075C182.514 61.0486 182.795 61.315 182.936 61.2994C182.561 60.5 181.262 60.1238 181.34 59.4028C180.996 59.058 180.902 59.3558 181.105 59.5595C177.96 55.9075 173.484 53.0549 169.258 50.0141C166.504 47.5063 169.665 49.105 167.051 47.6944C166.926 47.4593 166.785 47.7727 166.817 47.6473C165.815 47.0987 165.784 46.0799 164.97 45.8605C165.017 46.3307 164.438 45.7038 164.281 45.8605C162.591 44.3558 162.388 43.8386 160.776 43.0549L160.995 42.9765C158.992 42.2398 157.114 40.7038 155.298 40.3433C150.384 37.4906 145.345 35.3746 140.039 34.1834C134.734 32.9608 129.178 32.3652 123.56 31.4875C118.051 30.5627 112.651 29.779 107.283 29.5909C101.931 29.4029 96.5787 29.8417 91.195 30.8605C89.8804 30.8605 89.1918 30.9859 88.4719 31.1113C87.7519 31.2524 87.032 31.5032 85.7174 32.0204C85.7957 31.9107 85.9678 31.848 85.7644 31.8323C85.7487 32.2555 83.8707 32.4436 83.7455 32.9295C79.8956 34.1991 76.4995 35.8135 72.8686 37.8668C73.4164 37.4906 73.5572 37.0517 72.8686 37.4593L72.2896 38.1019L72.1174 38.0706C71.6792 38.3997 71.288 38.8542 71.8201 38.6818C67.4067 41.4718 63.2438 44.5596 59.4877 48.0705C55.7004 51.5658 52.3826 55.5784 49.722 59.9827C48.2979 61.9733 46.7642 65.1238 45.7938 67.6003C42.1473 74.5595 39.8624 81.6128 39.659 89.7006C39.659 89.7006 39.4242 89.4184 39.2051 88.7131C39.0017 88.0078 38.72 86.8636 38.8608 85.1708L38.8295 85.2021Z" fill="white"/>
<path d="M38.7353 88.3369C39.0327 88.525 39.9873 88.5877 39.2361 88.8855C39.1422 88.6974 38.6414 88.5093 38.7353 88.3369Z" fill="white"/>
<path d="M64.0417 89.2305C64.0417 89.2305 64.4016 89.2932 64.4799 89.3245C64.1669 89.3559 63.8852 89.5283 63.6348 89.4499C63.9478 89.4186 63.9008 89.3245 64.0417 89.2305Z" fill="white"/>
<path d="M70.5056 89.0581C70.4117 89.2462 69.0345 89.45 68.2207 89.497L70.5056 89.0581Z" fill="white"/>
<path d="M76.546 89.5127C77.0781 89.6381 76.9373 89.7321 76.233 89.7635C76.1861 89.6694 76.4052 89.6067 76.546 89.5127Z" fill="white"/>
<path d="M76.9534 89.0892C77.4542 89.0578 77.7046 89.1519 77.955 89.2459C77.9237 89.0892 76.7969 89.4026 76.9534 89.0892Z" fill="white"/>
<path d="M90.0207 89.0109C90.3337 88.9796 91.0066 88.8071 91.304 88.9952C90.9753 88.8698 89.7859 89.293 90.0207 89.0109Z" fill="white"/>
<path d="M96.0771 88.4625C96.2806 88.4625 96.3589 88.4938 96.578 88.4312C96.9379 88.4938 96.578 88.6506 96.2649 88.6819L96.0771 88.4625Z" fill="white"/>
<path d="M189.994 66.9419C190.119 67.13 190.245 67.3181 190.37 67.5218H190.166L189.994 66.9419Z" fill="white"/>
<path d="M153.045 35.2338C152.403 35.03 152.7 34.8733 152.622 34.7949C153.17 35.0457 152.325 34.889 153.045 35.2338Z" fill="white"/>
<path d="M127.472 29.0737L127.66 29.0894L127.55 29.4499L127.472 29.0737Z" fill="white"/>
<path d="M36.7637 90.4056C38.313 89.6376 35.7934 90.484 37.7496 89.8257C37.5931 90.0451 37.3271 90.2802 36.7637 90.4056Z" fill="white"/>
<path d="M196.474 81.55C199.134 80.5626 201.983 79.0892 204.377 76.8635C206.74 74.6221 208.493 71.6441 209.166 68.7131C209.354 68.0391 209.604 69.0579 209.964 67.4905C210.199 66.0328 210.434 64.3714 210.59 62.6002C210.731 60.829 210.872 58.9012 210.543 56.9889C210.246 55.0767 209.307 53.2115 207.883 51.8322C206.459 50.4529 204.674 49.5124 202.969 48.9012C203.125 48.9012 203.282 48.8855 203.438 48.9012C202.108 48.3839 200.355 48.5407 198.947 48.3212C198.947 48.2272 199.416 48.2429 199.103 48.0704C198.555 48.2742 196.959 48.0078 196.161 48.1958C195.785 48.0861 196.114 47.8667 195.785 47.7413L194.58 48.0391C194.455 48.0704 194.298 48.1018 194.173 48.1175C194.204 47.6316 195.222 46.4874 196.067 45.4059C196.896 44.3714 197.851 43.0078 198.195 41.5501C198.195 41.7225 198.148 42.036 198.305 41.8165C199.087 39.4027 199.119 36.315 197.569 33.9012C196.818 32.6943 195.55 31.8636 194.189 31.5501C192.812 31.2366 191.387 31.5501 190.151 32.0673C190.308 31.8949 190.433 31.6128 190.073 31.6128C189.963 32.0203 188.383 32.7727 186.865 34.105C186.661 34.0109 186.082 34.5595 185.143 35.5626C184.235 36.5187 182.858 38.0234 182.342 38.3996L182.733 37.898C182.483 38.1959 182.248 38.478 182.029 38.7444C181.935 38.8542 181.841 38.9482 181.763 39.0422C181.684 39.1206 181.716 39.0579 181.7 39.0736C181.684 39.0266 181.763 38.8385 181.872 38.6347C182.138 38.1959 182.404 37.71 182.529 37.4435C182.655 37.1614 182.655 37.0673 182.483 37.083L183.922 34.8416C183.375 35.2648 184.001 34.1833 184.439 33.3369C184.94 32.4122 185.253 31.7068 185.268 31.1739L185.127 31.2836C185.268 30.1394 185.628 29.4028 185.55 28.572L185.613 28.4937C185.534 26.362 185.237 25.1394 184.924 25.3119C184.924 24.92 185.174 25.3746 185.315 25.8134C185.503 26.2366 185.628 26.6441 185.738 26.0172C185.487 25.1395 185.096 24.3244 184.595 23.5721C184.063 22.8511 183.422 22.2084 182.67 21.7225C181.184 20.7507 179.352 20.3902 177.568 20.4686C176.676 20.5156 175.784 20.6567 174.923 20.9075C174.047 21.1739 173.296 21.4561 172.341 21.9576C170.541 22.8981 168.757 24.246 167.083 25.547C166.66 25.688 166.472 25.7351 166.645 25.4529C166.551 25.5313 166.441 25.641 166.3 25.7507C166.081 25.9545 166.222 25.7664 166.3 25.6567C166.441 25.4059 166.582 25.1708 166.676 24.967C166.864 24.5909 166.989 24.246 166.864 24.246C166.754 24.4655 167.818 23.0391 167.99 22.71C168.194 22.3652 168.272 22.1457 168.335 21.989C168.35 21.8479 168.319 21.7695 168.303 21.6442C168.241 21.4247 168.35 21.0015 168.71 20.1395C168.632 20.7351 168.804 20.7507 169.008 20.5C169.008 20.0297 169.117 19.2931 169.149 18.525C169.18 17.7884 169.102 17.0203 168.883 16.3464C169.008 16.5501 169.102 16.8793 169.211 16.8166C168.632 15.3589 168.366 13.9639 167.161 13.1802C167.349 13.2272 167.505 13.3056 167.693 13.384C166.958 12.4749 166.66 12.5533 166.504 12.5846C166.316 12.663 166.222 12.6787 165.361 12.3495C165.815 12.3965 165.69 12.2868 165.799 12.2241C163.953 11.9106 161.214 12.7884 159.539 13.525C159.633 13.4624 159.586 13.4153 159.586 13.4153C158.663 13.7758 157.724 14.1207 156.785 14.5282C156.3 14.7319 155.862 14.9357 155.345 15.2022C154.813 15.4686 154.281 15.7664 153.702 16.1269C152.951 16.4247 154.046 15.2962 152.215 16.3934C151.902 17.0517 148.725 18.7445 149.022 19.1677L148.85 19.2617C148.85 19.2617 148.709 19.3558 148.772 19.2774L148.96 19.0266C149.116 18.8542 149.21 18.6818 149.257 18.5094C149.288 18.431 149.351 18.337 149.351 18.2586L149.304 18.0705C149.304 18.0705 149.335 17.8981 149.195 17.8981L148.85 17.8511C149.555 16.8479 149.852 16.2837 150.243 15.6567L150.509 15.2022C150.587 15.0611 150.603 14.9827 150.65 14.873C150.728 14.6692 150.807 14.4812 150.885 14.2931C151.088 13.8855 151.041 13.6661 151.073 13.3997C151.088 13.1489 151.104 12.9294 151.073 12.757C151.167 13.2272 151.307 12.9294 151.417 12.7727C151.511 12.616 151.667 12.5689 151.652 13.2899C151.761 12.8824 151.824 12.5689 151.902 12.1614C152.106 12.3652 151.886 13.2272 152.106 12.8824C152.106 12.6473 152.012 11.8009 151.808 11.0956C151.62 10.3589 151.339 9.68493 151.229 9.35578C150.384 8.14888 149.304 7.33384 147.567 6.17396C148.49 6.62851 147.379 5.42161 147.99 5.76644C146.957 5.40594 145.924 5.23353 144.922 5.23353C144.249 5.07679 144.875 4.826 143.842 4.73196C143.874 4.87302 143.42 4.84168 143.107 4.92005C142.981 4.87302 142.262 4.826 141.542 4.826C140.822 4.826 140.086 4.85735 139.883 4.66926C139.538 4.54387 141.025 4.40281 140.211 4.35578C138.881 4.59089 138.85 4.74763 137.613 5.1865L137.567 5.13948C136.69 5.37459 135.344 6.47177 136.283 6.22099C136.815 5.95453 135.955 6.07992 136.8 5.79779C136.346 6.26801 135.109 7.08305 134.123 7.92945C134.421 7.60029 134.311 7.5376 134.374 7.31816C134.077 7.66299 133.795 8.00782 133.497 8.35264C133.153 8.77584 132.809 9.21471 132.465 9.65358C131.604 10.7351 130.774 12.2868 129.773 14.2774C129.726 14.5752 129.945 13.9796 130.164 13.3526C130.383 12.7257 130.618 12.1144 130.743 11.989C129.835 13.2743 128.943 14.9671 128.098 16.7539C127.457 18.1489 127.832 17.2241 127.613 17.5533L127.425 17.7884L127.331 17.8981C127.331 17.8981 127.331 17.8824 127.19 18.1018C126.799 18.7288 126.408 19.3401 126.017 19.9357C126.674 16.5188 127.41 12.8511 127.566 11.7696C127.472 12.804 127.081 13.2586 127.175 12.9608C127.269 12.3652 127.363 11.8323 127.425 11.362C127.457 11.1269 127.503 10.9075 127.535 10.7037C127.535 10.594 127.535 10.5 127.535 10.3903C127.535 10.0141 127.535 9.73195 127.535 9.46549C127.566 8.91691 127.503 8.69747 127.237 8.24293C127.331 7.92945 126.737 7.30249 126.236 6.72255C125.907 6.47177 126.189 6.50312 126.596 7.0517C126.236 6.64418 125.359 5.6097 124.123 4.77898C122.902 3.90124 121.384 3.36832 120.164 3.03917C120.179 3.13322 118.614 3.27428 118.066 3.30563L118.286 3.0235C117.753 2.81974 116.376 3.16456 116.251 2.9608C115.656 3.22726 116.83 2.92945 117.957 2.81974C119.099 2.71002 120.179 2.81974 119.334 2.81974C118.896 2.50626 117.018 3.24293 117.362 2.86676C116.188 2.9608 115.155 3.49372 114.013 3.57209C114.326 3.52506 114.827 2.91378 113.903 3.22726C112.307 3.83854 113.481 3.47804 112.229 4.08933C111.978 4.23039 111.744 4.40281 111.493 4.55955C111.556 4.81033 110.147 5.2492 110.836 5.20218C110.523 5.07679 108.848 6.59716 108.739 6.17396V5.75077C108.129 6.22098 107.956 6.78525 107.612 7.27114C107.518 7.30249 107.315 7.38086 107.315 7.31816C107.565 7.78838 105.938 8.46236 105.609 9.4028C104.357 10.3746 102.901 12.3652 102.166 12.757C101.931 13.1802 101.289 14.1207 100.773 14.8887C100.21 15.7037 99.5835 16.5501 98.9106 17.3338C99.1766 16.9106 99.5366 16.4091 99.5835 16.1583C99.0358 16.6912 98.7854 17.083 98.4411 17.6003C98.3002 17.4122 98.1437 17.1928 97.9246 16.9106C98.0655 16.989 96.6883 14.1207 96.1562 12.9765C95.2641 11.895 95.3111 12.5219 95.0763 12.4906C94.9042 11.2367 92.8383 10.0298 92.1967 8.86988C92.541 9.05797 93.5895 9.87302 92.9948 9.08932C92.5566 7.92945 91.1638 7.8981 89.8335 6.94199L89.99 7.52192C89.4735 6.86362 87.7364 6.86362 88.0337 6.48744C87.486 6.45609 86.2027 6.01722 86.3435 6.48744C85.1071 6.17396 83.6047 6.62851 82.4623 7.41221C81.3041 8.18023 80.506 9.26173 79.7235 9.79465C79.567 10.1708 79.0192 11.0329 79.3322 10.9545C79.833 10.4686 79.6452 10.0611 79.8956 9.92004C79.7235 10.2335 79.7861 10.3589 79.8174 10.4216C79.3009 11.1113 78.9879 11.7696 79.0349 10.8448C77.9237 12.5533 78.8471 12.9921 77.7829 15.3902C77.6577 15.2178 77.5168 15.3902 77.2821 16.1269L77.063 17.6316C76.3587 19.2617 76.3274 18.4153 76.03 18.3526C75.9048 18.7915 75.5918 19.5125 75.3727 20.0454C75.1536 20.6254 74.9502 21.1269 74.8719 21.4874C74.5589 21.8009 74.2772 22.0674 73.9955 22.3025C74.3085 22.036 74.2146 22.3025 73.9955 22.7257C73.886 22.9294 73.7451 23.1802 73.6199 23.4153C73.5573 23.5407 73.4947 23.6504 73.4321 23.7445C73.3695 23.8542 73.3382 23.7915 73.3069 23.8385C73.3852 23.8699 73.4791 23.6191 73.573 23.4153C73.5417 23.4153 73.4634 23.525 73.3695 23.6191C73.2756 23.5877 73.1661 23.5564 73.0565 23.5564C72.8061 23.1645 72.5401 22.7727 72.3053 22.4749C72.3679 22.757 72.7279 23.4623 73.1035 24.1833C73.1974 24.199 73.3069 24.199 73.4008 24.199C73.4478 24.2304 73.4947 24.152 73.5417 24.0736C73.5886 23.9953 73.6356 23.9326 73.6825 23.8699C73.6043 24.0266 73.5104 24.3401 73.4165 24.3871C73.3226 24.4498 73.2287 24.5282 73.1191 24.6065C72.8374 24.2147 72.5557 23.7915 72.2114 23.431C72.3209 23.3369 71.9766 22.6943 71.5228 21.9733C71.0376 21.3464 70.4586 20.5627 70.0673 20.2178C69.5352 19.6849 69.2692 19.873 69.097 19.7476C69.1753 19.6065 68.1267 19.0266 68.7214 19.1833C68.9562 19.2931 69.1283 19.6379 69.5352 19.779C69.2066 19.4028 69.41 19.1833 68.4241 18.7915C67.6572 18.5564 68.3302 19.3558 67.1094 18.5564C67.485 18.6504 67.6103 18.5564 67.9233 18.6191C67.5477 18.3526 67.1251 18.1175 66.7182 17.8824L66.5617 18.1175C66.4052 17.9921 66.546 18.0078 66.4678 17.9451C65.9983 18.0391 64.402 17.4279 64.042 17.7413C63.369 17.663 62.6335 17.3965 61.9762 17.3965L62.1014 17.3652C61.2876 17.1928 60.2234 17.5062 59.6287 17.8511V17.7884C59.2218 17.8667 58.2827 18.2743 57.8915 18.6661C56.8899 19.0266 57.0307 17.9294 56.2013 18.9482C55.2623 19.6692 55.231 20.5156 55.6535 20.3119C54.0729 21.5971 53.3999 23.8542 52.6017 25.547C52.6487 25.8605 52.7269 25.688 52.6956 26.2836C52.6487 26.5971 52.5548 26.9106 52.5548 27.2241L52.5235 27.71V28.0548C52.5078 28.2115 52.5391 28.3683 52.5548 28.525L52.68 29.4811C52.7426 29.826 52.68 30.0611 52.9304 30.5626C53.306 31.4874 53.6033 32.2711 54.0572 33.3213C55.1371 35.7037 56.2013 38.0391 57.2185 40.2962C57.5785 41.0955 57.9384 41.8636 58.2827 42.6316C58.3453 42.7883 58.4549 43.0078 58.4862 43.1175L58.5801 43.4153C58.627 43.6034 58.674 43.7601 58.7053 43.8855C57.4689 42.3495 56.2795 40.8761 55.1371 39.4341C56.3108 40.7194 56.0604 40.3118 55.544 39.5908C55.0119 38.8542 54.2294 37.8354 53.9946 37.4278C53.4468 36.989 52.7269 36.1112 52.2731 35.547C51.8036 34.967 51.5845 34.7162 51.5375 34.967C52.0853 35.9545 51.9288 35.9231 54.918 39.5125C53.6033 38.0548 52.1322 36.409 50.5985 34.7006L50.0977 34.1363C49.9256 33.9482 49.7378 33.7288 49.6438 33.6661L48.9083 33.0705L48.1727 32.4749C47.9223 32.2711 47.7658 32.2711 47.5624 32.1457C47.2024 31.989 46.7173 31.7382 46.5138 31.6912C46.2947 31.6128 46.0913 31.5501 45.9035 31.4874C45.5122 31.362 45.1836 31.2836 44.9644 31.1739C45.4183 31.3777 45.0427 31.362 44.6671 31.409C44.8549 31.0329 43.5403 30.8134 42.5856 31.0799L42.4761 31.3307C42.257 31.2523 42.0535 31.2209 41.8344 31.1739C41.4745 31.315 41.5371 31.7225 40.5981 31.7539C40.5198 31.6755 40.4415 31.6128 40.2537 31.6128C39.3617 32.13 38.454 33.0705 37.6089 33.6191C37.3428 33.7444 37.0455 33.8542 36.7794 33.9952C36.529 34.3871 36.2317 35.0924 36.7951 34.5438C35.543 35.8291 35.1674 37.0203 34.7292 37.4905C34.6666 38.2115 34.6666 38.9952 34.6979 39.7946C34.7449 40.2021 34.7449 40.5783 34.8231 41.0328C34.8701 41.2836 34.8544 41.3933 34.9483 41.7695C35.0579 42.2084 35.1674 42.6316 35.277 43.0705L35.3552 43.3996C35.4022 43.525 35.4961 43.6661 35.5587 43.8071L35.9969 44.6378C36.2943 45.2021 36.5447 45.7037 36.9829 46.4404L39.393 50.594C40.0346 51.6911 40.6607 52.7726 41.3023 53.8385L41.4275 54.1049C41.4745 54.199 41.4432 54.1676 41.7405 54.7005C42.257 55.6253 42.7578 56.5344 43.2586 57.4435C41.3649 55.688 39.4869 53.9482 37.6402 52.2397C36.3725 51.0798 35.1205 49.9356 33.8841 48.8071C33.9624 48.8071 34.025 48.8071 34.0876 48.8071C33.1799 47.9764 32.6008 47.4435 32.3191 47.2554C32.1 47.1614 31.9905 47.1457 31.8966 47.1457C31.7244 47.1457 31.5836 47.13 30.801 46.6911C31.1297 46.6911 30.7228 46.4717 30.4724 46.3463C30.222 46.2052 30.1124 46.0799 30.801 46.0955C30.4724 46.0015 30.175 45.9545 29.9872 45.9388C29.8464 45.9074 29.7212 45.9388 29.596 45.9388C29.3456 45.9545 29.1421 46.0015 28.97 46.0799C28.5944 46.2052 28.3127 46.409 27.9058 46.5344C27.8275 46.7695 28.5474 46.2679 28.4379 46.5814C28.3127 46.6284 26.6381 46.8322 26.6381 47.3024C26.2938 47.3024 26.4033 46.9733 26.5129 46.7695C26.2781 46.9262 26.0747 47.0987 25.8712 47.2868C25.3391 47.3651 25.6991 46.9106 26.1686 46.4717C26.6068 46.0172 27.1702 45.6567 26.5129 45.6096C26.2468 45.7037 25.9964 45.8761 25.746 46.0015C25.2922 46.0172 25.746 45.6723 26.1216 45.4372C26.4972 45.2335 26.7007 45.0454 25.6208 45.4686C24.7757 46.0799 24.494 46.9889 25.2296 46.6441C24.4784 47.2084 24.494 47.5532 24.4627 47.8197C24.4627 48.1331 24.3845 48.3839 23.8211 49.1049C23.3203 49.3557 24.7288 47.9294 24.3062 48.0077C23.4455 48.478 23.2733 49.5125 22.8508 50.1864C23.3829 49.4654 23.3359 50.2962 23.1638 50.8134C22.663 51.6441 23.0855 50.0924 22.5534 51.362C22.663 51.6598 22.4908 52.8824 22.9134 51.8949C23.2264 52.4592 22.4438 53.2115 22.7569 54.0109C22.3812 54.4497 22.1621 52.4905 21.8335 54.0422C22.1308 53.8385 22.2247 55.9701 22.7099 55.1394C22.6317 55.7193 22.4125 55.8134 22.1778 55.3745C22.0056 56.2836 22.9916 57.3338 22.4751 57.7413L22.8508 57.945C22.8351 58.2272 22.8508 58.6347 22.8508 59.1206C23.1012 59.8886 24.3062 61.2209 23.868 61.3933C24.0245 61.5971 25.0261 63.1488 24.9009 62.3651C24.4627 61.3149 23.9932 61.3933 24.1028 60.641C24.1341 61.503 24.9479 62.0046 25.4174 62.4435C25.3861 62.5218 25.3391 62.5532 25.3391 62.6629C25.6052 62.9764 26.0434 63.478 26.4659 63.9638C26.9042 64.4497 27.4206 64.9043 27.7336 65.0924C27.1389 64.6065 27.2172 64.8886 27.6241 65.3745L28.7665 66.0798C32.1626 68.9482 28.5631 66.55 31.5992 69.1519L29.0013 67.1143C29.549 67.5532 29.862 68.1801 31.2862 69.34C32.3974 69.9983 34.2441 71.2209 35.3709 71.9419C35.3709 71.9419 35.3709 71.9576 35.3709 71.9732C34.7605 71.9732 34.3536 71.8635 34.0093 71.7695C33.665 71.6754 33.399 71.6127 32.7886 71.6754C33.3207 71.6284 33.978 71.6284 34.1189 71.4717C34.0719 71.3933 33.5711 71.2679 32.7573 71.1112C31.8183 70.9074 30.6758 70.688 29.6116 70.5782C29.0169 70.5626 28.3283 70.5939 28.031 70.688C27.7493 70.782 27.9058 70.9231 29.283 71.1582C28.0153 71.0171 26.1373 70.6409 26.8572 70.5312C25.6052 70.4372 25.746 70.5312 25.9651 70.6253C26.1686 70.7193 26.4659 70.8447 25.3078 70.7977C24.7288 70.6409 23.6646 70.4529 22.5847 70.2334C22.0839 70.1394 21.5674 70.0453 21.0666 69.967C20.7849 69.8886 20.5189 69.8102 20.2841 69.7475C20.738 69.6065 21.0353 69.4811 21.7709 69.3714L20.7223 69.3087C21.8335 69.0109 20.1746 69.0109 20.8162 68.6817C20.2372 68.6033 19.5173 68.7131 18.9539 68.8071C20.6284 69.387 17.0758 69.6378 17.6079 70.1864C16.5124 70.3118 16.1368 70.0297 15.7612 69.8259C15.3856 69.6221 14.9631 69.5124 13.8989 70.1237C14.2901 70.2021 13.3041 70.782 14.6344 70.4058C13.2885 70.5939 13.8363 71.0641 12.2869 71.2366C13.3511 70.7193 10.9097 71.0328 12.4747 70.2804C12.4121 70.4685 13.445 70.1707 13.6954 70.0924C13.1007 70.014 13.6954 69.5124 12.3025 69.8572C11.4574 70.108 10.3463 70.5469 10.6123 70.7507C10.7375 71.0014 11.833 70.2961 11.4105 70.7663C9.86111 71.409 9.43856 71.1739 9.09425 71.9419C9.97066 71.456 10.3463 71.6598 10.4089 71.8635C10.0489 72.0359 9.76721 72.271 9.45421 72.4591L9.54811 72.177C7.90484 72.9607 9.2351 72.6942 7.81094 73.666C7.51359 73.7287 7.23188 73.8071 6.91888 73.8855C6.98148 73.2742 9.09425 72.4591 8.53085 72.177C7.49794 72.7883 7.38838 73.2898 6.44937 73.9168C6.60588 73.713 6.85628 73.4779 7.01278 73.2742C6.69978 73.5406 5.76077 73.2428 4.94696 74.8886C4.50875 75.7036 4.94696 75.1864 5.10346 75.3431C4.00795 76.9262 4.00795 77.5688 3.61669 78.6347C3.25674 78.2585 3.00634 80.5939 2.94374 79.2303C3.13154 78.9638 3.42889 78.2115 3.78885 77.4434C4.13315 76.6754 4.5244 75.9074 4.57135 75.5155C3.74189 75.7977 5.52601 74.3086 5.52601 73.713C4.41485 74.9043 4.1175 74.5751 3.69494 74.5908C3.41324 74.967 3.22544 75.4058 3.14719 75.688C3.30369 76.0171 3.60104 75.4842 3.8984 75.6409C2.77158 77.0986 2.39598 78.8854 2.50553 79.8416C2.30208 80.3745 1.97343 80.155 2.11428 79.4654C1.94213 80.5155 1.84822 81.597 2.00473 82.6472C2.17688 83.6817 2.47423 84.7005 2.95939 85.5782C2.86549 84.9042 3.13154 85.3745 3.47584 85.8604C3.82015 86.3306 4.25835 86.8165 4.13315 86.3619C3.55409 85.4999 3.52279 84.5908 3.961 84.9356C4.2427 85.4372 3.7732 85.0296 3.82015 85.2961C4.4305 85.7663 4.19575 86.55 5.05651 86.8165C3.71059 85.6252 4.3679 86.9575 3.8671 86.9732C4.99391 87.8509 3.60104 87.1299 4.6496 88.1331C5.88597 88.9324 7.51359 89.6691 9.06295 90.1864C10.8314 91.3306 14.0867 91.6284 15.9177 91.8321C16.8567 92.1299 16.1525 92.4904 17.2167 92.6785C18.4687 92.7882 16.3246 92.1456 18.1714 92.4904L17.9836 92.5688C18.547 92.5375 21.3953 92.992 21.9274 92.3337L21.364 92.8039C21.7083 92.8353 22.0369 92.7255 22.3186 92.6785C22.3343 92.8353 22.7569 92.945 22.1778 93.0704C23.3516 93.3368 24.6192 92.8823 25.8556 92.7099C25.5739 92.6629 25.2922 92.6002 25.0261 92.5218C27.1233 92.0672 28.5787 92.0829 30.5663 91.503V91.7851C30.9575 91.6284 31.3488 91.4873 31.7244 91.3149C31.5053 91.644 32.6478 91.4873 33.2112 91.0798C32.2565 91.6127 31.2705 92.1143 30.2533 92.6002C29.3299 92.6472 31.1453 92.0516 30.5193 91.9262C30.0029 91.8321 28.1405 92.2867 27.8745 92.5845C28.61 92.4904 28.6413 92.4121 29.1734 92.2083C29.4864 92.5218 28.3909 92.7569 27.8745 93.0861C28.2657 93.0077 28.8291 93.0234 28.8917 92.8823C28.1718 93.2114 27.405 93.3995 26.1216 93.5563C26.9668 93.2898 25.6208 93.3839 25.9338 93.2428C25.8712 93.5876 24.6505 93.8541 23.0542 93.8384C21.9117 93.5249 20.065 94.1832 18.187 93.9481C18.9539 93.666 19.9242 93.4309 21.0353 93.2898C19.8929 93.1174 19.752 93.2898 18.6252 93.0704C18.0618 93.2898 17.6392 93.666 16.1055 93.6503L16.0586 93.3995C14.6814 93.3368 14.6188 93.713 12.8972 93.3212C9.93936 92.6315 6.96583 91.503 5.02521 90.108L5.08781 89.8572C4.3992 89.7161 3.47584 89.0578 2.67768 88.1801C1.86387 87.3024 1.23787 86.2209 0.768362 85.4058C0.220606 83.9168 -0.0767472 82.1926 0.0171538 80.688C0.111055 79.1676 0.54926 77.9137 1.01876 77.2554C1.95778 74.7318 3.49149 72.6472 5.43211 70.9858C6.41807 70.1707 7.49794 69.4497 8.703 68.9011C9.89241 68.3682 11.1601 67.9607 12.506 67.6629C12.2243 67.8353 11.9739 68.0547 11.7078 68.2428C12.5842 67.7413 12.3651 68.2742 13.2728 68.0234C12.146 67.945 14.4936 67.3808 15.1509 67.13C16.3716 67.1143 17.7331 67.0359 19.0634 66.9732C19.7364 66.9419 20.3937 66.8949 21.0197 66.8635C21.3953 66.8635 21.4735 66.8322 21.63 66.8008C21.7552 66.7695 21.8804 66.7538 22.0056 66.7225L22.1778 66.9732C22.5691 66.8008 22.9134 66.8008 23.4298 66.8792C23.6802 66.9105 23.9776 66.9732 24.3062 67.0359L24.8227 67.1457L24.9635 67.177C24.9635 67.177 24.9322 67.1457 24.9322 67.13L24.8227 67.0203L24.4158 66.5657C24.5097 66.5344 24.6975 66.456 24.2749 66.0328C23.6333 65.6096 23.3359 65.3902 23.0229 65.1237C22.8821 64.9983 22.7412 64.8729 22.5847 64.7319C22.5378 64.7005 22.3812 64.5124 22.2247 64.34C22.0682 64.1519 21.9117 63.9638 21.7396 63.7444C20.8319 62.3964 19.8146 59.8886 19.6268 58.1958C18.6722 55.2334 18.7974 51.8165 20.2841 48.8071C21.051 47.3181 22.0839 45.9388 23.5394 44.9043C24.9479 43.8542 26.6068 43.2272 28.344 42.9294L28.8761 43.1802C29.3143 43.1018 29.7681 43.0861 30.222 43.0705C30.5976 43.0705 30.6132 43.0548 30.801 43.0705C31.0827 43.0861 31.3331 43.1645 31.5679 43.2899C31.7088 43.3683 31.8966 43.525 31.9592 43.5877C31.8496 43.4153 31.7557 43.2429 31.6775 43.0705C31.5366 42.71 31.4427 42.3338 31.4114 41.9576C31.3175 40.8448 31.3644 39.5438 31.5366 38.3996C31.7401 37.2397 32.0061 36.1582 32.3817 35.1865L32.6478 35.8761C33.3364 34.3244 34.4475 32.4122 33.9311 32.5532C34.5101 31.8636 35.2613 31.0172 36.0751 30.3275C36.889 29.6535 37.7654 29.1833 38.3757 29.1206C40.0816 28.4937 40.3946 28.1332 41.897 27.804C43.7437 27.6786 44.9801 27.8354 46.1695 28.0705C46.4669 28.1175 46.7642 28.1802 47.0616 28.2742L47.5154 28.3996C47.6406 28.431 47.7502 28.4623 47.8754 28.4937C48.0162 28.5407 48.1571 28.5877 48.3136 28.6347C48.3918 28.6661 48.4857 28.6974 48.5796 28.7288L48.3918 28.6034C48.3136 28.6818 48.2666 28.8855 48.564 29.0579C48.9396 29.0266 50.0038 30.2805 49.0491 28.9325C49.1117 29.0109 49.1743 29.0893 49.2526 29.1833C49.5656 29.6065 49.3308 29.2147 49.2526 29.0109C49.1587 28.7758 49.0648 28.4937 49.0178 28.2742C48.9865 28.1645 48.9709 28.0548 48.9709 27.9451C48.9709 27.8824 48.9709 27.8824 48.9709 27.757L49.0178 27.0517C49.1117 26.1269 49.3308 25.2492 49.6438 24.4811C49.4091 24.7319 49.5969 23.8542 49.6438 23.4623C50.1603 21.9263 51.0054 20.4686 52.007 19.246C53.0086 18.0235 54.1511 17.036 55.184 16.1739C55.6692 15.9702 54.6363 16.8323 55.7631 16.1583C56.4204 15.7037 55.6535 15.9388 56.483 15.4059C58.8462 14.0423 61.7101 13.7602 64.2455 14.1677C66.7964 14.6066 69.097 15.6567 71.0376 17.0047C71.4132 17.2241 71.7575 17.5062 72.1018 17.7884L72.5088 18.1175C72.6653 18.2429 72.7748 18.3683 72.8687 18.5094C72.8844 18.5407 72.9157 18.5877 72.9313 18.6034L72.9939 18.478L73.1191 18.2272L73.3226 17.757L73.9486 16.1112L74.6841 14.0736C75.717 11.3464 76.7812 8.33697 79.1757 5.84481V6.00155C80.0521 4.81033 81.6485 3.91691 83.2448 3.50939C84.888 3.08619 86.4218 3.18024 87.5955 3.00782C88.2685 3.18024 90.0682 3.6818 89.5205 3.76017C90.616 3.94826 92.0089 4.66926 93.2765 5.68807C94.5598 6.70688 95.6554 7.94512 96.7352 8.96393C96.5787 8.74449 96.4535 8.63477 96.2188 8.43101C96.9543 9.48117 97.6429 10.453 98.3315 11.4404C98.5506 11.7382 98.7228 11.9577 98.8949 12.3808C98.9419 12.3652 99.0045 12.3025 99.0671 12.2711C99.0201 12.4122 98.9106 12.616 98.8793 12.804C98.8793 12.804 98.8793 12.8197 98.8793 12.8354V12.8667C99.0201 12.8667 99.2079 12.4279 99.3018 12.1771C99.4114 11.9106 99.474 11.7696 99.7244 11.9106C99.8966 11.6912 99.6305 11.5658 99.5679 11.6755L99.7244 11.5188L100.116 11.0642L100.914 10.1395C101.462 9.52819 102.009 8.90123 102.573 8.27427C103.715 7.0517 104.936 5.82914 106.282 4.71629C108.974 2.45924 112.291 0.672405 115.938 0.0454466C117.268 -0.0642711 117.957 0.0454466 118.301 0.155164C118.645 0.249208 118.645 0.343252 118.614 0.421622C118.567 0.594035 118.348 0.547013 120.414 0.562687C120.727 0.719427 120.696 0.390274 120.727 0.515665C122.37 0.672405 122.981 1.73823 124.076 1.97334C123.826 1.44043 124.843 2.14576 124.968 2.00469C126.33 2.97648 126.924 3.77585 127.472 4.4655C127.989 5.1865 128.505 5.78211 129.225 6.84794L128.975 6.76957L129.444 7.36518C129.569 7.5376 129.616 7.61597 129.694 7.74136C129.82 7.96079 129.882 8.18023 129.929 8.38399C129.961 8.60343 129.976 8.80719 129.945 8.86988C129.945 8.86988 129.929 8.94825 129.961 8.83854L130.07 8.52506C130.148 8.30562 130.211 8.08619 130.274 7.86675C130.43 7.58462 130.602 7.31816 130.79 7.09873L130.853 7.02036L131.228 6.64418C131.479 6.37772 131.792 6.12694 132.073 5.86048C132.668 5.35892 133.278 4.87302 133.951 4.43415C136.565 2.67867 139.883 1.73823 143.107 2.00469C146.315 2.2398 149.648 3.65046 151.824 6.50312C152.872 7.8981 153.561 9.51252 153.89 11.1896C153.952 11.6128 154.031 12.036 154.046 12.4749V12.6316V12.6787C154.046 12.7257 154.046 12.757 154.046 12.7884C154.046 12.8197 154.046 12.8511 154.015 12.8667L154.124 12.7727L154.218 12.71L154.25 12.6787L155.329 12.1771C157.348 11.3307 159.226 10.6097 161.464 10.0141C162.622 9.73195 163.984 9.49684 165.533 9.7633C167.083 10.0141 168.601 10.9075 169.587 12.036C170.588 13.1645 171.199 14.4655 171.527 15.7821C171.7 16.4404 171.793 17.1301 171.825 17.804C171.825 18.1489 171.825 18.4937 171.809 18.8385V19.152C171.809 19.152 171.762 19.246 171.731 19.2931C171.7 19.3558 171.793 19.246 171.872 19.246H171.887L172.263 19.0893C172.67 18.9169 173.077 18.7758 173.499 18.6348C174.36 18.3526 175.252 18.1645 176.16 18.0548C177.975 17.8511 179.869 17.9764 181.716 18.6348C183.672 19.6065 184.533 20.547 185.331 21.4247C186.098 22.3338 186.99 23.3526 187.678 25.5783C187.553 25.4216 187.459 25.1394 187.475 25.4529C187.71 25.5156 187.897 26.2993 188.007 27.1144C188.085 27.9294 188.085 28.7445 188.257 28.9482C188.257 29.1363 188.257 29.3401 188.226 29.5282L188.195 29.8103V29.8573L188.164 29.967L188.117 30.1708C188.07 30.2962 188.038 30.4216 187.991 30.5156C187.991 30.5156 187.944 30.5783 187.976 30.5626L188.054 30.4686L188.21 30.3119C188.32 30.2178 188.414 30.1394 188.508 30.0924C188.477 30.1551 188.32 30.6097 188.523 30.4686C188.555 30.4059 188.57 30.3432 188.586 30.2962C188.586 30.2648 188.586 30.2492 188.586 30.2178C188.586 30.1865 188.743 30.1081 188.805 30.0454H189.04C189.807 29.7006 190.699 29.2304 189.775 29.3871C191.012 28.9639 192.452 28.7131 193.938 28.9012C195.441 29.0893 196.849 29.6692 198.054 30.641C200.465 32.6316 201.341 35.4999 201.388 38.0705C201.419 39.3714 201.184 40.735 200.793 41.9106C200.402 43.0861 199.854 44.1676 199.259 45.1708L198.79 45.8918L198.555 46.2366L198.477 46.2836L198.242 46.4717C198.242 46.4717 198.383 46.5344 198.524 46.5657C198.587 46.5657 198.524 46.5657 198.712 46.5971L199.792 46.7382C200.512 46.8636 201.231 46.9733 201.967 47.1457C204.815 47.8197 207.93 48.9795 210.23 51.5814C211.514 53.1018 212.562 55.4529 212.828 57.7413C213.141 60.0454 212.969 62.177 212.766 64.0109C211.717 69.387 209.479 74.4497 205.567 78.1801C203.61 80.0296 201.294 81.4716 198.696 82.3651C196.114 83.2585 193.203 83.6033 190.276 82.992C190.276 82.992 190.73 82.8353 191.716 82.7099C192.702 82.5688 194.236 82.3807 196.38 81.8321L196.474 81.55Z" fill="white"/>
<path d="M34.8389 91.2052C34.4163 91.1425 33.2582 91.4246 34.072 90.8604C34.2441 91.0014 34.9015 91.0014 34.8389 91.2052Z" fill="white"/>
<path d="M5.02487 87.2083C5.02487 87.2083 4.79011 86.8792 4.74316 86.8008C5.00922 87.0202 5.33787 87.1143 5.49437 87.365C5.21267 87.1613 5.19702 87.271 5.02487 87.224V87.2083Z" fill="white"/>
<path d="M2.39551 81.0796C2.53636 81.205 2.73981 82.6 3.02151 83.368C2.73981 82.6627 2.45811 81.9103 2.39551 81.0796Z" fill="white"/>
<path d="M5.32213 75.4215C5.80728 75.0924 5.72903 75.2491 5.32213 75.8447C5.21258 75.8447 5.32213 75.6096 5.32213 75.4215Z" fill="white"/>
<path d="M5.30664 74.81C5.65094 74.3712 5.93265 74.2458 6.18305 74.1361C6.0422 74.0263 5.40054 75.1392 5.30664 74.81Z" fill="white"/>
<path d="M18.7192 70.1236C19.0948 70.108 19.893 69.9669 20.2529 70.1707C19.8617 70.0139 18.4375 70.3901 18.7192 70.1236Z" fill="white"/>
<path d="M30.3633 70.8135C30.8328 70.8762 31.0988 70.9389 31.5057 70.9389C32.523 71.1426 31.9596 71.2053 31.2397 71.1426L30.3633 70.8135Z" fill="white"/>
<path d="M91.2266 7.92954C91.0075 7.80415 90.7884 7.71011 90.5693 7.60039L90.7571 7.50635C90.9136 7.64741 91.0858 7.7728 91.2266 7.92954Z" fill="white"/>
<path d="M133.904 8.57185C134.405 7.97624 134.405 8.35242 134.515 8.28972C134.014 8.74427 134.562 7.96057 133.904 8.57185Z" fill="white"/>
<path d="M152.153 16.9264L151.887 17.0831L152.278 16.4248C152.231 16.5972 152.184 16.7696 152.153 16.9264Z" fill="white"/>
<path d="M64.3089 63.2274C64.3089 63.2274 64.2146 63.3528 64.2303 63.2274C64.2932 63.1804 64.3403 63.1647 64.3089 63.2274Z" fill="white"/>
<path d="M68.5023 57.3024C68.4241 57.3181 68.4241 57.3024 68.4554 57.2554C68.5023 57.2084 68.5806 57.2398 68.6119 57.2711C68.7058 57.3495 68.7684 57.4749 68.9562 57.4435C68.9875 57.4435 68.784 57.6316 68.8623 57.6316C69.2692 57.5219 69.3944 57.9294 69.3788 58.3213L69.3161 58.3526C69.3161 58.3526 69.5353 58.3056 69.5353 58.3683C69.504 58.3996 69.4726 58.3996 69.4413 58.4623C69.5509 58.3683 69.5509 58.4937 69.6448 58.431C69.6135 58.478 69.5353 58.5564 69.504 58.6191L69.6448 58.5407C69.9891 58.3526 69.77 58.7131 69.9891 58.6818C69.9578 58.6974 69.9265 58.7131 69.9109 58.7444C70.2239 58.7444 70.3334 58.9639 70.5369 59.0893C70.4899 59.1206 70.396 59.1676 70.3491 59.2147C70.4899 59.1206 70.5682 59.152 70.6308 59.1833C70.5056 59.3087 70.8186 59.1833 70.7873 59.293H70.756C70.9438 59.246 70.709 59.4341 70.9125 59.3401L70.8186 59.4498C71.0377 59.3244 70.756 59.5908 70.8812 59.5438L70.9281 59.5125C70.9281 59.5125 70.9125 59.5908 70.9594 59.6065H70.9438C71.0533 59.6692 70.9438 59.7789 71.1159 59.6692C71.0064 59.7789 71.0064 59.6379 70.8499 59.7946C71.1629 59.9357 71.2881 60.2021 71.4133 60.4686C71.3663 60.5313 71.3507 60.5626 71.2881 60.6096C71.335 60.6096 71.3663 60.688 71.4759 60.6723C71.4759 60.6723 71.3976 60.735 71.3976 60.7507C71.3507 60.8291 71.6167 60.7037 71.5541 60.7977C71.4915 60.7977 71.4446 60.8134 71.382 60.8604C71.5385 60.8448 71.5541 60.9075 71.6167 60.9388C71.5854 60.9388 71.5541 60.9388 71.5072 60.9702C71.695 60.9702 71.5072 61.0955 71.648 61.0955L71.5385 61.1269C71.4446 61.2523 71.7732 61.0642 71.7263 61.1582C71.6793 61.1582 71.648 61.1739 71.6011 61.1896C71.8202 61.1896 71.7889 61.315 71.8828 61.362C71.8671 61.362 71.8358 61.362 71.8358 61.362C71.8828 61.4247 71.8515 61.5187 71.961 61.5814C71.9297 61.6285 71.695 61.6598 71.7576 61.7225C71.9767 61.6598 71.8828 61.8322 72.1175 61.7225C72.1175 61.8009 72.0549 61.9419 72.1332 61.9576C72.0393 61.9576 71.8671 62.0517 71.8358 62.0046L71.7106 62.083C71.6167 62.0987 71.7263 62.036 71.6167 62.083C71.6167 62.1144 71.7419 62.1614 71.7106 62.1927C71.8515 62.2084 72.1175 62.2084 72.1645 62.3024C72.0706 62.2711 71.9297 62.3651 71.8828 62.3495L72.3366 62.3965C72.3366 62.3965 72.1645 62.4278 72.2271 62.4592C72.2897 62.4592 72.321 62.4592 72.3679 62.4592C72.3366 62.4592 72.4462 62.5846 72.2271 62.6159C72.1488 62.6473 72.1801 62.5689 72.1019 62.6159C72.1019 62.6629 72.1801 62.6629 72.1958 62.7256H72.1645C72.1645 62.7256 72.274 62.8354 72.3836 62.7727C72.3836 62.7413 72.2584 62.7883 72.3053 62.757C72.4305 62.757 72.4775 62.8354 72.4775 62.8981C72.4462 62.8824 72.3836 62.8981 72.321 62.8981C72.4931 62.9607 72.5557 63.0391 72.634 63.1332C72.7435 63.1332 72.4462 63.1018 72.4931 63.0861C72.3523 63.1959 72.6966 63.3212 72.4931 63.4153C72.4775 63.3996 72.6496 63.4153 72.6183 63.4153C72.6183 63.478 72.4462 63.4623 72.5088 63.5093C72.4149 63.5093 72.5401 63.5564 72.5557 63.6034C72.6183 63.6347 72.5088 63.6034 72.5088 63.572C72.5714 63.6191 72.7122 63.8542 72.5557 63.9639C72.6183 63.9639 72.7592 64.0736 72.7435 64.1049L72.6027 64.0736C72.5088 64.0736 72.6027 64.1676 72.4775 64.152C72.634 64.246 72.3836 63.9012 72.4775 63.9952C72.3523 63.9952 72.6809 64.152 72.4775 64.1049C72.4775 64.1676 72.6183 64.246 72.4775 64.2774C72.5088 64.2774 72.3053 64.1833 72.3053 64.2303C72.3053 64.3087 72.3679 64.2617 72.3992 64.3401L72.4462 64.4027C72.5714 64.4498 72.4149 64.4654 72.5557 64.4811C72.4462 64.4654 72.587 64.6222 72.3679 64.5438L72.1958 64.4811C72.1958 64.4811 72.3523 64.5908 72.4149 64.6535C72.3992 64.6535 72.3679 64.6535 72.3366 64.6535C72.587 64.7476 72.2897 64.7319 72.4618 64.8416C72.3523 64.8886 72.3836 65.0297 72.1958 64.9984C72.2427 65.0924 72.3053 65.1864 72.2114 65.2178C72.2114 65.1864 72.2114 65.1708 72.1488 65.1394C72.0549 65.1394 72.1175 65.1864 72.1488 65.2335C72.1175 65.2021 71.9767 65.2335 71.8671 65.2178C71.8984 65.3118 72.0393 65.3745 72.1019 65.4372C71.8515 65.3275 72.1332 65.688 71.8984 65.594C71.8984 65.5469 71.8515 65.4372 71.7732 65.4372C71.5385 65.3118 71.8515 65.641 71.695 65.6253L71.8671 65.7507C71.7419 65.688 71.8671 65.9388 71.7106 65.7821C71.7419 65.8604 71.5854 65.8134 71.7419 65.9545C71.5072 65.9231 71.5072 66.2993 71.2098 66.0328C71.2098 66.0799 71.1472 66.0642 71.2098 66.1582C71.3037 66.2366 71.2098 66.0642 71.2568 66.1269C71.2568 66.1426 71.2724 66.1896 71.2881 66.2209C71.2255 66.2209 71.1785 66.2209 71.1159 66.0328C70.9594 65.9701 71.2255 66.409 71.0533 66.3933C71.022 66.315 70.9907 66.2836 70.9594 66.315V66.4874C70.8655 66.4874 70.8342 66.3306 70.756 66.1896C70.7247 66.2366 70.6777 66.2523 70.709 66.362L70.5838 66.2052C70.6777 66.315 70.5838 66.2993 70.5838 66.3463V66.2993C70.5838 66.2993 70.5212 66.2993 70.5056 66.315C70.5369 66.409 70.5995 66.4247 70.6464 66.4404C70.6464 66.5031 70.6151 66.5031 70.6151 66.5971C70.5682 66.456 70.5056 66.5187 70.4743 66.5187C70.4273 66.5031 70.4743 66.6598 70.4586 66.6598C70.4273 66.5814 70.396 66.6598 70.396 66.5501C70.396 66.5187 70.443 66.6128 70.443 66.5501C70.396 66.5031 70.3647 66.3777 70.3491 66.4874C70.3334 66.5658 70.443 66.7695 70.3491 66.7068C70.3491 66.6598 70.3491 66.6128 70.3491 66.5501L70.2552 66.4874L70.2865 66.6128C70.2865 66.6128 70.2865 66.5658 70.2708 66.5501C70.2708 66.6911 70.1769 66.6128 70.1926 66.7852C70.1613 66.8009 70.0987 66.7068 70.0517 66.7068C69.9891 66.6285 69.9578 66.6911 69.9265 66.7852V66.7538C69.9265 66.7538 69.8483 66.7695 69.8326 66.8636C69.7544 66.7695 69.7544 66.362 69.7074 66.5344C69.6605 66.5344 69.6448 66.7852 69.6761 66.8792C69.5666 66.8009 69.457 67.0203 69.3475 66.8165C69.3475 66.8792 69.3474 66.9106 69.3161 66.9419C69.1596 66.8949 68.9718 67.0987 68.8779 66.8165C68.9249 66.7695 68.8779 66.6755 68.8936 66.5971C68.8466 66.7225 68.8623 66.4717 68.831 66.6755C68.831 66.8009 68.8153 66.8636 68.8466 66.9106C68.7527 66.9733 68.6119 66.9576 68.5806 66.8322C68.5962 66.8949 68.5806 66.9263 68.5493 66.9576C68.5806 66.7695 68.518 66.7225 68.4554 66.7852L68.4241 66.8949V66.7695C68.4241 66.7695 68.3458 67.0203 68.3145 66.8949C68.3145 66.8479 68.3145 66.8009 68.3145 66.7695C68.2519 66.8636 68.1424 67.0046 68.1111 66.8949V66.7225C68.1111 66.7225 68.0172 66.8322 68.0485 66.8949C67.9702 66.7695 67.9233 66.7382 67.9233 66.5971C67.6885 66.9263 67.4538 66.8636 67.2816 66.7852L67.3129 66.7068C67.2973 66.6128 67.2347 66.8479 67.2347 66.7852C67.2816 66.7068 67.2503 66.5971 67.3286 66.5031C67.2973 66.3933 67.2034 66.6285 67.1408 66.6441C67.0938 66.7538 67.2034 66.5814 67.1408 66.7225C67.1251 66.7538 67.0782 66.5971 66.9999 66.7695C66.9999 66.6911 67.0625 66.5814 67.0938 66.5187L67.0312 66.5814C67.0469 66.362 67.266 66.268 67.2973 66.0015H67.2503C67.2816 65.8291 67.4068 65.8448 67.3442 65.7664C67.2816 65.8448 67.1564 66.0642 67.1721 66.1582C67.0782 66.1739 66.9999 66.5501 66.906 66.5031C66.906 66.3933 66.9843 66.5031 67.0156 66.362C67.0156 66.2053 66.906 66.409 66.8904 66.3463C66.906 66.4247 66.8121 66.5814 66.7652 66.5971C66.7495 66.5031 66.8591 66.456 66.7965 66.409C66.7495 66.5031 66.6556 66.5501 66.6869 66.6284C66.5774 66.8322 66.64 66.5501 66.5304 66.6911C66.5774 66.5344 66.7339 66.362 66.7026 66.2679C66.6556 66.4247 66.5304 66.4247 66.4835 66.6598C66.4835 66.6128 66.5148 66.4874 66.5774 66.409C66.5774 66.2993 66.3739 66.6284 66.4835 66.3463L66.4052 66.4874C66.4052 66.4874 66.4052 66.3933 66.4209 66.2993C66.3896 66.2836 66.2174 66.4404 66.327 66.2209C66.3113 66.2366 66.2331 66.1896 66.1861 66.362C66.1861 66.4717 66.2957 66.2836 66.2331 66.5031C66.28 66.315 66.1548 66.5031 66.0922 66.5344L66.1235 66.4404C66.1235 66.4404 66.0609 66.4404 65.9983 66.5187C66.0296 66.4717 66.0609 66.409 66.0453 66.3933L65.967 66.5187C65.8575 66.5501 66.0609 66.2836 65.967 66.2836L66.0609 66.2052C66.0609 66.2052 66.0609 66.0955 66.0296 66.1112C65.9514 66.2209 65.8731 66.3463 65.8105 66.4404C65.7479 66.4717 65.8575 66.2993 65.7636 66.3933L65.8888 66.2836C65.8888 66.2836 65.9514 66.0799 65.8888 66.0485C65.8418 66.0799 65.701 66.2209 65.7166 66.2993C65.6853 66.2993 65.6853 66.2053 65.7636 66.1269C65.6853 66.1269 65.701 66.2523 65.6227 66.2993C65.6227 66.2053 65.654 66.0799 65.6697 65.9388L65.8262 65.7821H65.7949C65.9201 65.6253 65.8418 65.641 65.9514 65.4842C65.9514 65.4529 65.8888 65.4843 65.8418 65.5156C65.7636 65.8134 65.5758 65.8291 65.4506 66.0642C65.3254 66.0642 65.7166 65.4686 65.4193 65.7821C65.4036 65.8448 65.2471 66.0015 65.341 65.9701C65.2941 65.9074 65.1689 66.1739 65.1532 66.0485C65.2628 65.9858 65.2471 65.7821 65.4036 65.688C65.3567 65.7664 65.4036 65.7664 65.4349 65.7507C65.4662 65.641 65.5758 65.5156 65.5288 65.4842C65.4819 65.4842 65.4349 65.4686 65.3723 65.5783C65.2941 65.7037 65.4349 65.594 65.3254 65.7194C65.2315 65.7194 65.341 65.5156 65.1689 65.7194C65.2158 65.7194 65.1532 65.8761 65.0906 65.9545H64.9967L65.0593 65.8918C65.0124 65.7821 64.9341 66.0328 64.8715 65.9545L64.9498 65.7664C65.0593 65.641 65.028 65.9074 65.1532 65.6567C65.1063 65.6096 65.0124 65.7194 65.0124 65.6253C65.0437 65.6253 65.0593 65.6253 65.075 65.594C65.075 65.5783 65.2471 65.2491 65.075 65.3902C64.9967 65.4372 65.0124 65.4686 64.9498 65.5469C64.8558 65.5156 64.7619 65.594 64.6993 65.5626C64.8245 65.4059 64.6211 65.4842 64.8089 65.3432C64.7619 65.4686 64.8871 65.5313 65.028 65.3902C65.1376 65.1708 65.075 65.4529 65.2315 65.2648C65.1689 65.2178 65.3097 65.014 65.388 64.8886C65.388 64.873 65.3254 64.92 65.2941 64.92C65.2002 65.0454 65.2315 65.0454 65.1376 65.1708C65.0906 65.0924 64.981 65.1081 64.8558 65.2021C64.8715 65.1237 64.9654 65.014 65.0124 65.014C64.9028 64.9984 64.8402 64.92 64.7933 64.8259C64.6837 65.0611 64.6837 64.8103 64.5898 64.9984C64.5898 65.0767 64.5272 65.2335 64.4333 65.3118C64.4176 65.2805 64.4959 65.2335 64.5272 65.1864C64.4176 65.2648 64.6054 64.9827 64.4489 65.1237C64.5741 65.1237 64.6524 64.9043 64.7776 64.7632C64.668 64.8103 64.8715 64.6535 64.8089 64.6222C64.6993 64.6692 64.5741 64.6849 64.4959 64.6692C64.5428 64.4654 64.3237 64.5281 64.2611 64.4654C64.2924 64.3714 64.4646 64.2303 64.4489 64.1676C64.402 64.1363 64.3237 64.3714 64.3237 64.246L64.355 64.2147C64.355 64.2147 64.355 64.0109 64.1203 64.2147L64.3081 64.0579C64.3081 64.0579 64.2611 64.0579 64.2455 64.0579C64.2924 64.0109 64.3394 63.9482 64.3863 63.9169C64.4646 63.7758 64.3081 63.8698 64.2611 63.8385L64.1829 63.9639C64.042 63.9639 64.1046 63.8385 64.0107 63.8071L64.1046 63.7131H64.0107C64.1203 63.6504 64.1516 63.5564 64.042 63.6191L64.3707 63.4937C64.3394 63.572 64.2298 63.572 64.1359 63.6817C64.0577 63.7758 64.1359 63.8071 64.2455 63.7288C64.2455 63.6974 64.2142 63.7288 64.1672 63.7288C64.2924 63.5877 64.3237 63.6347 64.4333 63.5564C64.4176 63.5564 64.4333 63.4937 64.402 63.5407C64.4959 63.4937 64.5115 63.5093 64.5585 63.5407C64.4802 63.572 64.4802 63.6347 64.4333 63.6661C64.5585 63.5564 64.6211 63.5564 64.6367 63.6191C64.5272 63.7915 64.8089 63.619 64.8089 63.6974C64.668 63.8071 64.5585 63.8698 64.4802 63.8855C64.4489 63.9795 64.5115 63.9169 64.4802 64.0109C64.5741 63.9325 64.7306 63.8071 64.8089 63.7915L64.7306 63.8855C64.8089 63.8855 64.9341 63.7444 64.9498 63.8071C64.9967 63.9169 65.0749 63.9952 65.1376 64.0579L65.0593 64.152C65.2628 63.9796 65.2471 64.1676 65.3567 64.1206C65.3567 64.2774 65.6071 64.1676 65.5288 64.3714C65.7323 64.4027 65.9201 64.4184 66.0609 64.5438L65.9357 64.6849C66.0296 64.5908 65.9044 64.7789 65.9357 64.7789C65.9827 64.6379 66.0766 64.6379 66.1548 64.5595C66.1548 64.7162 66.327 64.6379 66.4522 64.5595L66.3896 64.6692C66.5617 64.4968 66.5461 64.7162 66.6243 64.7946C66.6243 64.8416 66.5774 64.9513 66.6087 64.9513C66.7495 64.7946 66.7652 64.8103 66.8747 64.7319C66.9217 64.7632 66.9843 64.8416 66.9999 64.9357C67.2973 64.7632 67.4225 64.9984 67.6729 64.9043L67.6416 65.0454C67.9233 64.8103 68.0798 65.1394 68.2832 65.0297L68.205 65.2648C68.2363 65.3589 68.3458 65.2335 68.3615 65.0454C68.3928 65.1238 68.5023 64.9513 68.5023 65.1551C68.5493 65.2021 68.5806 65.0611 68.6275 65.0297C68.7214 65.1394 68.7527 65.1238 68.8623 65.0767H68.8466C68.8466 65.0767 68.8153 65.2178 68.8466 65.2335C68.8936 65.1708 68.9718 65.3118 68.9562 65.014C69.0501 65.1864 69.1909 64.8886 69.2692 65.1081C69.2692 65.0297 69.2692 65.014 69.2848 64.9513C69.3631 64.9513 69.457 65.1081 69.504 64.9513C69.5196 64.9827 69.504 65.0924 69.5353 65.0924C69.5353 65.0611 69.5353 64.9827 69.5353 64.9357C69.6292 64.7789 69.8013 65.0454 69.8952 64.9827C70.0204 64.7789 70.1926 64.7789 70.3021 64.6692L70.3334 64.7162C70.2239 64.5125 70.5838 64.8103 70.3804 64.5281C70.4273 64.5595 70.4273 64.5281 70.5056 64.6065C70.4117 64.4654 70.709 64.6065 70.5838 64.4341C70.5838 64.4341 70.5838 64.4341 70.5995 64.4654C70.7403 64.4811 70.6308 64.3557 70.756 64.3401C70.7716 64.3557 70.7873 64.3871 70.8342 64.4184C70.9438 64.4498 70.6464 64.246 70.9125 64.3557C70.9125 64.3401 70.7873 64.2774 70.7873 64.293C70.9594 64.199 70.8499 63.9482 70.8186 63.7758C71.0064 63.6817 71.2881 63.8542 71.1003 63.7131C71.1629 63.7131 70.9907 63.6974 71.0533 63.6974C70.9751 63.6504 71.382 63.6817 71.2411 63.6191C71.069 63.6191 71.1472 63.5877 71.0377 63.572C71.1629 63.4937 71.3194 63.478 71.1942 63.3996H71.2881C71.0377 63.3056 71.1629 63.2115 70.8655 63.1488C70.8029 62.71 70.5369 62.3024 70.3804 61.8949C70.3021 61.4717 69.9735 61.1112 69.8639 60.6096C70.0204 60.3902 70.0048 60.3745 69.8639 60.3275C69.8952 60.3118 69.9109 60.3275 69.9422 60.2805C69.77 60.3745 69.8796 60.2178 69.7074 60.3118C69.6448 60.1394 69.504 60.0297 69.3944 59.873C69.4257 59.873 69.5666 59.7946 69.5353 59.7789L69.41 59.826L69.457 59.7946C69.457 59.7946 69.3161 59.826 69.2848 59.8886C68.8779 59.6222 68.8779 59.0109 68.518 58.7131C68.5023 58.572 68.3302 58.525 68.2206 58.4623C68.205 58.3526 68.1737 58.2429 68.1424 58.1488C68.1424 58.1018 68.0954 58.0391 68.1111 58.0078C68.1267 57.9764 68.2832 57.7883 68.3302 57.6786C68.3928 57.5532 68.4241 57.4435 68.4241 57.3965C68.4241 57.3651 68.4241 57.3651 68.4241 57.3651C68.4084 57.3338 68.471 57.4435 68.3771 57.3024V57.2868C68.3771 57.3024 68.518 57.2554 68.471 57.2711C68.471 57.2711 68.4084 57.3338 68.4084 57.3651C68.4084 57.4122 68.4084 57.3651 68.3458 57.3651C68.3458 57.3651 68.4084 57.3808 68.4084 57.3965C68.3615 57.3965 68.5493 57.2084 68.4397 57.2868L68.5023 57.3024Z" fill="white"/>
<path d="M64.3714 63.2744C64.3714 63.2744 64.2928 63.4155 64.167 63.4782C64.2299 63.4155 64.2928 63.3214 64.3714 63.2744Z" fill="white"/>
<path d="M64.5739 64.8887C64.5739 64.8887 64.5739 64.9357 64.5583 64.9514C64.5426 64.9514 64.48 64.9984 64.4957 64.9514C64.5113 64.9514 64.5426 64.92 64.5739 64.8887Z" fill="white"/>
<path d="M64.8255 65.1396C64.8255 65.1396 64.6683 65.218 64.6211 65.2023L64.8255 65.1396Z" fill="white"/>
<path d="M64.8712 65.6411C64.8556 65.7195 64.8243 65.7508 64.793 65.7195C64.8243 65.6725 64.8399 65.6725 64.8712 65.6411Z" fill="white"/>
<path d="M65.0129 65.4844C65.0129 65.4844 65.0129 65.5471 65.0129 65.5941C65.06 65.5314 64.9342 65.5941 65.0129 65.4844Z" fill="white"/>
<path d="M65.4975 66.0796C65.4975 66.0796 65.5914 66.0326 65.5444 66.1266C65.5601 66.064 65.4192 66.1893 65.4975 66.0796Z" fill="white"/>
<path d="M65.8576 66.127C65.8576 66.127 65.8576 66.1583 65.8891 66.127C65.8891 66.174 65.8419 66.221 65.8262 66.221L65.8733 66.1113L65.8576 66.127Z" fill="white"/>
<path d="M71.8835 65.6099L71.8994 65.6732L71.8359 65.6099H71.8835Z" fill="white"/>
<path d="M72.6656 62.898C72.6656 62.898 72.7438 62.8667 72.7595 62.8667C72.7595 62.898 72.6499 62.8667 72.6656 62.898Z" fill="white"/>
<path d="M71.9776 61.6128V61.6285L71.8047 61.6755L71.9776 61.6128Z" fill="white"/>
<path d="M59.4718 72.3964C59.4718 72.3964 59.5347 72.2396 59.5504 72.365C59.4875 72.412 59.4561 72.4591 59.4718 72.3964Z" fill="white"/>
<path d="M59.3624 71.1894C59.2529 71.1894 59.159 71.1737 59.0651 71.1423V71.205C59.0494 70.9699 59.2529 70.7348 59.4876 70.6565C59.7224 70.5624 59.9571 70.5311 60.2075 70.437C60.2701 70.437 60.1606 70.6878 60.3014 70.6408C60.5675 70.4997 61.0213 70.6565 61.1309 71.0483C61.2561 71.4401 61.0057 71.8163 60.724 71.9104L60.6927 71.8477C60.5988 71.879 60.6927 72.1455 60.5675 72.1925C60.5362 72.1612 60.5675 72.1141 60.4892 72.0828C60.5518 72.2238 60.364 72.2552 60.364 72.3649C60.3014 72.3336 60.2545 72.2239 60.1919 72.1925V72.3649C60.0823 72.8038 59.738 72.4276 59.472 72.506C59.5033 72.4746 59.5346 72.459 59.5346 72.4119C59.0025 72.4903 58.6738 71.738 58.7364 71.1894C58.7834 71.2207 58.8929 71.2521 58.9555 71.2364C58.7834 71.1894 58.7677 71.0013 58.799 70.8445C58.9712 70.8445 58.7677 70.5311 58.9712 70.4213V70.4527C58.9399 70.2176 59.1903 70.3743 59.1433 70.1392L59.2998 70.1862C59.2216 69.9355 59.5346 70.1862 59.5815 70.0452V69.9981C59.5815 69.9981 59.738 70.0295 59.8163 69.9511V69.9825C60.051 69.8728 60.1919 70.0452 60.1919 69.8414C60.2701 69.9982 59.9728 69.8884 60.098 70.1235C60.8022 69.9354 61.5691 70.6721 61.6317 71.4088C61.5691 71.4872 61.5378 71.5342 61.4595 71.5499C61.5065 71.6282 61.4752 71.8007 61.5534 71.9104C61.5534 71.879 61.4439 71.9104 61.4282 71.9574C61.3187 72.0358 61.5691 72.1925 61.4282 72.2709C61.4282 72.1925 61.3656 72.1455 61.2874 72.1141C61.3656 72.3022 61.2561 72.4276 61.1778 72.553C61.1778 72.506 61.1778 72.4746 61.1309 72.4276C61.1309 72.6627 60.9118 72.5843 60.8492 72.7568V72.6314C60.5988 72.6157 60.8961 72.8822 60.677 72.8978C60.7083 72.8508 60.677 72.8038 60.677 72.7568C60.5988 73.0389 60.2701 73.0546 60.098 73.1329C60.098 73.1173 60.098 73.0859 60.098 73.0859C59.8945 73.1329 59.6911 73.0389 59.4563 73.0546C59.3937 72.9762 59.5815 72.8195 59.3937 72.7568C59.2842 72.9919 59.0651 72.6314 59.0025 72.9292C58.8616 72.7724 58.7521 72.4746 58.6425 72.3963C58.7521 72.4276 58.8303 72.1612 58.9086 72.2865L59.0025 72.1141C59.0964 72.0671 59.0025 72.2238 59.112 72.1141C59.0807 72.0671 58.9242 71.9574 58.9555 71.879C58.7834 71.832 58.5017 71.7693 58.486 71.5185C58.5799 71.6126 58.7364 71.4402 58.7834 71.5185C58.6425 71.4402 58.5017 71.3304 58.3921 71.1894C58.3921 71.0953 58.5643 71.1894 58.5486 71.064C58.486 71.064 58.4704 71.0013 58.4391 70.9543C58.4547 70.9229 58.5486 70.5781 58.7834 70.6721C58.8773 70.6721 58.7521 70.7975 58.8773 70.7662C58.9555 70.6565 58.8929 70.6094 59.0025 70.4997H59.0338C59.1277 70.484 59.1903 70.2646 59.0338 70.2489C58.9712 70.296 59.1433 70.3273 59.0338 70.343C58.9868 70.2019 59.1433 70.0452 59.3155 69.9825C59.2842 70.0452 59.3155 70.0922 59.3311 70.1392C59.3781 70.0138 59.472 69.9198 59.5815 69.8571C59.6911 69.7787 59.8006 69.622 59.9571 69.6063C59.9571 69.4809 59.8632 69.8257 59.8319 69.7787C60.1762 69.9041 60.677 69.6063 60.8961 70.0138C60.8335 70.0138 60.9431 69.8414 60.9431 69.8728C61.1152 69.9981 61.0057 70.1392 61.1465 70.1549C61.0839 70.2489 61.2874 70.2176 61.4126 70.296C61.5221 70.296 61.3969 70.3586 61.3187 70.296C61.5221 70.296 62.1481 70.9229 62.0073 71.3931C62.0699 71.3775 62.289 71.6753 62.2577 71.785L62.1012 71.7223C62.0073 71.8007 62.0699 72.0514 61.9134 72.0201C61.976 72.1455 62.0073 71.9417 61.976 71.7536C61.9603 71.5655 61.8664 71.3931 61.9603 71.5342C61.8508 71.5812 62.1951 71.9574 61.976 71.8633C61.9603 72.0358 62.0542 72.3022 61.8351 72.3963C61.8821 72.3492 61.6943 72.1612 61.6473 72.2865C61.5534 72.506 61.6786 72.3806 61.616 72.6L61.5847 72.7411C61.6943 72.8665 61.3969 72.8978 61.5847 72.9605C61.4752 72.8822 61.303 73.3054 61.1778 73.0546L61.0996 72.8508C61.0996 72.8508 61.0683 73.1486 61.0213 73.274C61.0057 73.274 60.9587 73.2427 60.9431 73.1956C61.0526 73.5091 60.6927 73.2897 60.6144 73.5718C60.3484 73.5405 59.9571 73.6502 59.8789 73.4307C59.6911 73.5091 59.472 73.5718 59.2998 73.4307C59.3468 73.4307 59.4094 73.4307 59.4407 73.3681C59.3468 73.2427 59.2998 73.2897 59.1746 73.2897C59.2372 73.2427 59.0025 73.0546 59.0807 72.7724C58.9242 72.7254 58.846 72.8665 58.7834 72.9135C58.8773 72.6314 58.3452 72.6157 58.486 72.2709C58.5486 72.3179 58.6895 72.4276 58.7051 72.2709C58.9086 72.0358 58.4234 72.0828 58.533 71.7693L58.3139 71.879C58.4234 71.738 58.1887 71.4872 58.4078 71.5028C58.3295 71.4088 58.533 71.205 58.3139 71.205C58.4704 70.9856 58.533 70.7191 58.6895 70.4997C58.846 70.2803 59.0651 70.1235 59.2842 70.2176C59.3155 70.1549 59.472 70.1079 59.3781 70.0295C59.2216 69.9825 59.2998 70.1706 59.2216 70.1235C59.2685 70.0922 59.2372 70.0295 59.2216 69.9981C59.3781 69.9511 59.4876 69.9511 59.4563 70.1392C59.7537 70.1706 59.5972 69.669 60.0823 69.716C60.0823 69.8101 60.098 69.8414 60.2232 69.8414C60.3014 69.7944 60.3797 69.763 60.4736 69.7317C60.7553 69.8571 60.5831 69.9825 60.5518 70.1235C60.677 70.1392 60.8179 70.2333 60.9274 70.1706C60.9274 70.2646 60.9431 70.343 60.9587 70.4213C60.9587 70.2333 61.0996 70.4213 61.1622 70.4213H61.0839C61.0839 70.4213 61.1935 70.5467 61.2561 70.5938C61.3187 70.5311 61.2561 70.3743 61.1935 70.2803C61.303 70.2803 61.3656 70.3743 61.4908 70.4213C61.35 70.484 61.5534 70.6721 61.5847 70.7975C61.616 70.9229 61.7725 70.8916 61.7882 70.9386C61.7099 70.9699 61.8508 71.158 61.7099 71.0796C61.663 71.0483 61.7569 70.9543 61.6473 70.9072C61.6473 71.0013 61.4908 71.0326 61.6473 71.1737C61.7569 71.2834 61.929 71.0953 61.8977 71.3775C61.8508 71.3148 61.7882 71.2991 61.7256 71.2521C61.7256 71.3304 61.7099 71.4088 61.6786 71.4715H61.8195C61.8195 71.4715 61.7725 71.5028 61.7569 71.5028C61.9134 71.5812 61.7882 71.8633 61.929 71.9574C61.929 72.0985 61.7725 72.1768 61.7099 72.2709V72.2395C61.5847 72.3179 61.5378 72.4903 61.5378 72.647V72.6157C61.5378 72.6157 61.3656 72.8195 61.3343 72.9292C61.1309 72.9762 61.0057 72.5373 60.9431 72.7881C60.8179 72.8665 60.7866 73.1486 60.8961 73.1956C60.5675 73.2583 60.1606 73.5405 59.8632 73.3054C59.8006 73.3524 59.8319 73.3994 59.7224 73.4151C59.472 73.3524 59.2216 73.274 58.9712 73.18C58.7834 73.0389 58.533 72.7881 58.5486 72.5217C58.6895 72.6157 58.6582 72.459 58.7364 72.4119C58.5799 72.3649 58.7834 72.2395 58.5799 72.2865C58.4704 72.3492 58.4078 72.3649 58.4391 72.5217C58.1887 72.2552 58.1104 71.738 58.2356 71.5655C58.173 71.6439 58.1417 71.5812 58.1104 71.5185C58.2982 71.5342 58.3295 71.3304 58.2982 71.158L58.1887 71.111L58.3295 71.0326C58.3295 71.0326 58.1104 70.8916 58.2826 70.7662C58.3295 70.7662 58.3765 70.7818 58.4234 70.7662C58.3921 70.5781 58.4078 70.2333 58.6425 70.1235C58.7208 70.1235 58.8147 70.1235 58.8929 70.1235C58.9399 70.0608 59.0181 69.8728 58.846 69.9355C59.0181 69.8571 59.159 69.8101 59.2685 69.7787L59.738 69.669L59.8319 69.7317C59.9728 69.8101 60.051 69.8884 60.0667 69.9981C60.8335 69.9355 61.4908 70.9229 61.2874 71.8007L61.2091 71.7536C61.0839 71.9574 61.35 71.9104 61.2404 72.0514C61.1778 71.9574 61.0057 72.1455 60.9744 71.9574C60.8022 72.1925 60.9587 72.3806 60.8492 72.5844C60.9274 72.6941 60.8961 72.3963 60.99 72.5217C61.0057 72.6 60.6144 72.8195 60.6614 72.9762C60.5518 72.9762 60.5362 72.8195 60.5205 72.7411C60.4892 72.8038 60.4579 72.8665 60.411 72.9135C60.1449 72.8508 60.5675 72.3336 60.2388 72.2709L60.1606 72.3649C59.9884 72.2709 60.2388 72.0358 60.0197 72.1298C60.0041 72.2552 60.0197 72.5373 60.1449 72.553C59.9102 72.7254 60.1919 73.0232 59.8163 73.1016C59.6911 73.0232 60.1136 73.0075 59.9884 72.8822C59.8006 72.8038 59.6754 73.0389 59.5189 73.0075C59.6911 73.0546 59.5659 73.2583 59.4407 73.2897C59.2372 73.1956 59.5659 73.1329 59.2998 73.1016C59.2529 73.2113 58.9555 73.227 59.1903 73.3367C59.0338 73.5561 58.8773 73.2113 58.6425 73.3054C58.6269 73.1173 59.0651 73.0546 58.799 72.8665C58.799 73.0546 58.3295 72.8665 58.3765 73.1486C58.2669 73.0232 58.3295 72.9135 58.4704 72.8978C58.3765 72.7411 57.8757 72.7411 58.0791 72.4903L57.907 72.5217C57.907 72.4276 57.8913 72.3179 57.9226 72.1925C57.8287 72.0358 57.5626 71.6596 57.813 71.6596C57.7661 71.6126 57.8131 71.2364 57.6409 71.3618C57.5157 71.6126 57.7505 71.6439 57.547 71.8163C57.7035 71.6126 57.5001 71.4402 57.4688 71.2521H57.5626C57.5313 71.1423 57.6096 70.9543 57.5313 70.8759C57.5626 70.9543 57.6252 70.9386 57.6722 70.8759L57.5783 70.7348C57.6722 70.3743 57.8287 70.7662 57.9696 70.4527C57.9539 70.5467 57.9383 70.6251 57.9383 70.7191C57.9383 70.6565 58.1104 70.6408 58.1574 70.4997C58.0791 70.3743 58.0478 70.1862 58.0165 70.0608C58.1417 69.8571 58.1887 70.0922 58.2669 69.8571C58.22 69.9511 58.1887 70.0608 58.1574 70.1549C58.1574 70.2176 58.4234 70.1862 58.6269 70.0452C58.7364 69.9198 58.9555 69.6376 58.6269 69.7003C58.7677 69.622 59.0181 69.6533 58.9242 69.763C59.2529 69.6376 58.8303 69.6376 59.1277 69.4966C59.2998 69.5436 59.6285 69.6847 59.7693 69.8571C59.6754 69.9041 59.5815 69.9668 59.5033 70.0452H59.6441C59.4407 70.2176 59.7067 70.2019 59.5815 70.3743C59.6441 70.4213 59.7537 70.3743 59.8476 70.3743C59.6911 69.9982 60.2701 70.1079 60.3327 69.8571C60.7396 70.0295 60.1762 70.5154 60.7083 70.4213C60.7083 70.3273 60.99 70.296 60.7553 70.2019C60.8961 70.3743 61.0683 70.1235 61.1778 70.4057C60.9744 70.3273 61.0996 70.7348 60.8022 70.6408C60.8805 70.5938 60.7553 70.484 60.7083 70.484C60.7083 70.6094 60.5049 70.6721 60.6301 70.7975C60.724 70.8602 60.8179 70.9856 60.9274 70.8916C61.0526 70.7975 60.8022 70.7505 60.9744 70.7191C61.1778 70.9072 60.9744 71.0483 61.2717 71.017C61.1778 70.8916 61.2717 70.7662 61.3656 70.7035L61.5221 70.8445H61.4126C61.5065 71.1894 61.6317 70.8445 61.7412 71.1737L61.6004 71.3931C61.4282 71.3931 61.4908 70.9386 61.2561 71.111C61.3343 71.2834 61.4908 71.2991 61.4752 71.4872C61.4439 71.4558 61.4126 71.4088 61.3813 71.3775C61.3813 71.4558 61.0683 71.6126 61.3343 71.8007C61.4439 71.9104 61.4439 71.8163 61.5378 71.8007C61.616 72.1141 61.7256 72.2082 61.7412 72.4433C61.5534 72.3806 61.6786 72.8351 61.4908 72.5687C61.6473 72.4746 61.616 71.9574 61.3969 71.8947C61.1778 72.0358 61.3969 71.6596 61.1309 71.6596C61.1778 71.879 60.9274 71.9104 60.7866 71.9731C60.7866 72.0201 60.8492 72.0671 60.8805 72.0985C61.037 72.0985 61.0213 72.0358 61.1778 72.0044C61.1778 72.2552 61.2404 72.4746 61.35 72.6627C61.2561 72.7411 61.1152 72.6627 61.1309 72.5844C61.1309 72.8978 60.9744 73.2113 60.724 73.4151C61.0526 73.4151 60.4892 73.7129 60.724 73.7599C60.9118 73.6815 61.1622 73.6345 61.1622 73.8069C61.0526 73.901 61.0839 73.7285 61.0057 73.7442C60.9587 73.9793 60.677 73.7442 60.6614 74.0107C60.9274 73.7286 60.5518 73.7285 60.4892 73.5405C60.3797 73.7442 60.4266 73.4307 60.2545 73.5405C60.1449 73.7285 59.9258 73.8853 59.7067 73.9323C59.425 73.7912 58.9712 73.8696 58.7051 73.6502C58.6425 73.4778 58.8616 73.3837 58.799 73.2583C58.6895 73.1486 58.6895 73.5091 58.6269 73.2583H58.6738C58.5643 73.2113 58.6269 72.8195 58.3608 72.7411C58.4391 72.7724 58.5173 72.8038 58.5956 72.8195C58.6112 72.7724 58.5643 72.7411 58.5486 72.6941C58.6269 72.6941 58.6895 72.6627 58.7364 72.7254C58.9086 72.647 58.7521 72.4903 58.8303 72.3649C58.7834 72.3649 58.7208 72.3649 58.6582 72.3649C58.6895 72.0828 58.9242 72.0358 59.112 71.879L59.1746 72.0044C59.1746 72.0044 59.2372 71.9104 59.2685 71.879C59.2842 72.0044 59.4094 72.0514 59.4563 71.9417C59.3624 72.0671 59.3155 72.2082 59.3155 72.3336C59.2059 72.3022 59.2998 72.1612 59.1903 72.0671C59.0807 71.9887 58.9399 72.1612 59.0181 72.2709C59.0807 72.2395 59.0494 72.2082 59.0651 72.1298C59.1903 72.2709 59.112 72.3179 59.1746 72.4433C59.1746 72.4119 59.2529 72.4433 59.2216 72.3806C59.2372 72.4903 59.2216 72.5217 59.1903 72.5844C59.159 72.506 59.0807 72.553 59.0494 72.506C59.1903 72.6 59.1903 72.6784 59.1433 72.7254C58.9399 72.7881 59.2529 72.8195 59.2372 72.8508C59.0807 72.9135 58.9242 72.9292 58.846 72.8351C58.7834 72.9605 58.8773 72.9292 58.846 73.0702C58.9868 73.0546 59.159 72.9762 59.2529 72.9605L59.1746 73.0546C59.2842 73.0546 59.3624 72.8978 59.425 72.9605C59.5346 73.0702 59.7537 73.0546 59.8945 73.0075L59.9415 73.1173C59.9102 72.8508 60.1293 72.8978 60.0823 72.7568C60.2858 72.6627 60.098 72.4119 60.3171 72.3336C60.2232 71.9731 60.0197 71.7223 59.8319 71.4401L60.0041 71.3618C59.8632 71.3931 60.051 71.2521 59.9728 71.2207C59.9258 71.3775 59.7693 71.2834 59.6754 71.3618C59.6441 71.158 59.3937 71.2521 59.4094 71.3931V71.2677C59.425 71.4715 59.4094 71.2834 59.2685 71.3461C59.2216 71.3304 59.112 71.2834 59.0964 71.3304C59.2529 71.4715 59.2372 71.5029 59.3468 71.5499C59.3468 71.5812 59.2842 71.5812 59.2372 71.6439C59.3624 71.5812 59.3781 71.5499 59.4563 71.5342C59.5502 71.5342 59.5033 71.4245 59.5815 71.5342C59.5815 71.5342 59.6128 71.5499 59.5502 71.5342L59.5815 71.5499C59.4407 71.4715 59.4407 71.5028 59.425 71.4245C59.425 71.3931 59.425 71.3618 59.3937 71.3618C59.3624 71.3618 59.3937 71.3618 59.3937 71.3148C59.3937 71.3461 59.4094 71.2521 59.4563 71.1737V71.1423L59.9102 71.0953C59.9102 71.0953 59.9102 71.2364 60.0197 71.3304C59.9571 71.2834 60.098 71.4245 59.9102 71.3461C59.8476 71.3775 59.9884 71.4401 60.0197 71.4715C59.9102 71.5342 59.9415 71.5969 60.0041 71.6282C60.0041 71.6282 59.8476 71.6439 59.8319 71.6753C59.8945 71.6909 59.8319 71.7693 60.0197 71.6282C59.9884 71.6439 59.9884 71.6596 59.9884 71.6596L60.0823 71.6439C60.1449 71.6439 60.1762 71.6282 60.1919 71.738C60.1919 71.6596 60.2232 71.6439 60.2232 71.5969C60.2545 71.5969 60.3797 71.7066 60.364 71.5655C60.3953 71.5812 60.411 71.6753 60.4423 71.6596C60.4423 71.6282 60.3953 71.5812 60.3797 71.5342C60.3484 71.4245 60.5675 71.4245 60.5049 71.2677C60.3327 71.1423 60.1919 71.064 60.0667 71.1894L60.0354 71.158C60.1606 71.2677 59.7693 71.2207 60.0354 71.3148C59.9884 71.3148 60.0041 71.3618 59.9102 71.3461C60.0354 71.3461 59.785 71.5499 59.9884 71.5185C59.9884 71.5185 59.9884 71.5185 59.9571 71.5185C59.8945 71.6753 60.0667 71.5812 60.0823 71.7223C60.0667 71.738 60.0354 71.7536 60.0041 71.8007C60.0041 71.926 60.1762 71.5812 60.1136 71.8633C60.1449 71.8633 60.1606 71.7223 60.1449 71.738C60.364 71.879 60.5518 71.5342 60.4892 71.3931C60.6457 71.3148 60.9118 71.4558 60.724 71.3148C60.7709 71.3148 60.6301 71.3148 60.677 71.3148C60.5988 71.2834 60.9118 71.1894 60.7709 71.158C60.6457 71.2207 60.677 71.158 60.5988 71.1894C60.6301 71.0796 60.6927 70.9543 60.5362 70.9543L60.5831 70.9072C60.3797 70.9856 60.3014 70.8602 60.2232 71.0796C60.0667 71.0796 60.0041 71.2521 60.0667 71.3304C60.1136 71.4088 60.2075 71.3775 60.2232 71.3618C60.2388 71.3931 60.2701 71.3618 60.2701 71.3461C60.2701 71.3304 60.2858 71.3461 60.2858 71.2364C60.364 71.017 60.2858 70.9856 60.2232 71.0796C60.2232 71.0483 60.2232 71.0326 60.2232 71.0013C60.2232 71.1894 60.1606 71.017 60.1919 71.205C60.1919 71.205 60.1919 71.205 60.1606 71.205L60.1136 71.0953C60.1136 71.0953 60.1919 71.2207 60.1762 71.205L60.1449 71.3304C60.1449 71.3304 59.9728 71.2521 59.9728 71.2834L60.0823 71.3461H60.0354C60.0354 71.3461 60.1606 71.3931 60.2232 71.3931C60.2232 71.4245 60.2858 71.4245 60.2232 71.4401C60.1136 71.4558 60.0197 71.5028 59.9728 71.5342C59.9728 71.5342 59.9258 71.5655 59.9571 71.5499L59.9102 71.5969C59.9102 71.5969 59.9258 71.5342 59.9415 71.4245C59.9415 71.2677 59.9415 71.3148 59.9571 71.3304C59.9884 71.3304 60.0354 71.3304 60.0667 71.3304C60.098 71.3304 60.1293 71.2991 60.1293 71.2991C60.1293 71.2991 60.3014 71.3775 60.3171 71.3618C60.3327 71.3618 60.3484 71.3618 60.3171 71.3618C60.3953 71.3461 60.3797 71.3618 60.3953 71.3461C60.3953 71.3461 60.2701 71.4402 60.2232 71.5499C60.2388 71.5342 60.1293 71.3461 60.0041 71.3304C59.8789 71.2991 59.8632 71.2834 59.8476 71.2991L59.6128 70.5311C59.8006 70.7035 60.0041 70.8602 60.2388 71.0013C60.2388 71.0013 59.8006 71.2991 59.425 71.1267L59.3624 71.1894Z" fill="white"/>
<path d="M59.4096 72.412C59.4254 72.3023 59.331 72.2553 59.4096 72.1299C59.4096 72.2239 59.4411 72.3336 59.4096 72.412Z" fill="white"/>
<path d="M60.3487 73.9321C60.3487 73.9321 60.4274 73.9321 60.4588 73.9321C60.4116 73.9792 60.3959 74.0732 60.333 74.0575C60.3802 74.0262 60.3487 73.9792 60.3645 73.9321H60.3487Z" fill="white"/>
<path d="M61.1779 72.9761C61.2566 73.0231 61.2251 73.3052 61.1465 73.462C61.1779 73.2895 61.1937 73.1328 61.1779 72.9761Z" fill="white"/>
<path d="M61.6006 71.8479C61.6478 71.7382 61.6949 71.7538 61.7264 71.8949C61.6792 71.9106 61.6478 71.8636 61.6006 71.8479Z" fill="white"/>
<path d="M61.3811 71.8004C61.3654 71.7064 61.3969 71.6594 61.4283 71.5967C61.3654 71.6124 61.5226 71.8004 61.3811 71.8004Z" fill="white"/>
<path d="M60.0357 69.7475C60.0357 69.7475 59.7696 69.7475 59.7227 69.6221C59.8009 69.7004 60.1452 69.6377 60.0357 69.7475Z" fill="white"/>
<path d="M58.3773 69.967C58.3773 69.967 58.2986 69.9983 58.2672 70.0454C58.1571 70.0767 58.2043 69.9513 58.2672 69.9043L58.3773 69.967Z" fill="white"/>
<path d="M58.3139 72.0516C58.3139 72.0516 58.2667 71.9889 58.251 71.9419H58.3453C58.3453 71.9419 58.3296 72.0046 58.3139 72.0516Z" fill="white"/>
<path d="M59.2694 69.7786C59.1908 69.8727 59.1437 69.7316 59.1279 69.7316C59.2223 69.6846 59.1437 69.8413 59.2694 69.7786Z" fill="white"/>
<path d="M59.3156 73.023L59.2842 73.0073L59.3785 72.8506L59.3156 73.023Z" fill="white"/>
<path d="M77.7209 71.8951C77.7209 71.8951 77.5322 71.7541 77.6737 71.8011C77.7366 71.8795 77.7995 71.9578 77.7209 71.8951Z" fill="white"/>
<path d="M76.8436 70.7665C77.1253 70.5471 77.2818 70.7665 77.2662 70.9076C77.2662 71.08 77.2036 71.2054 77.3914 71.4091C77.407 71.4562 77.0158 71.3308 77.094 71.4091C77.2975 71.5659 77.2818 71.801 77.1253 71.9264C76.9688 72.0518 76.7028 72.0204 76.5932 71.848L76.828 72.0674C76.828 72.0674 76.9375 71.9734 76.9845 71.942H77.094C77.1723 71.942 76.828 71.8323 76.8906 71.7696C76.9532 71.7696 76.9845 71.801 77.0784 71.8166C76.8749 71.7696 77.0001 71.7069 76.8593 71.6286C76.9532 71.6286 77.1097 71.6756 77.2036 71.6913L76.9845 71.5815C76.4837 71.2524 77.1253 71.3778 76.9375 71.1113C76.9845 71.1583 77.0001 71.1897 77.0627 71.2054C76.9219 70.7978 77.2349 70.5784 77.5166 70.3746C77.5166 70.4687 77.5635 70.6098 77.6105 70.7038C77.5479 70.453 77.6261 70.359 77.72 70.2963C77.767 70.5627 77.8765 70.0455 78.0017 70.2022V70.2649C78.1269 69.9985 78.08 70.453 78.2365 70.1395C78.2365 70.2179 78.2365 70.2806 78.2365 70.359C78.4243 70.0298 78.2834 70.5784 78.4086 70.453L78.4556 70.3903C78.5651 70.359 78.4869 70.5314 78.5808 70.5157L78.5495 70.5471C78.7216 70.5784 78.6121 70.7822 78.8468 70.5941C78.6903 70.7822 78.6747 70.5471 78.4712 70.8292C78.9564 70.9389 79.0816 71.5188 78.9094 71.942C78.7842 71.942 78.7373 71.942 78.6277 71.9107C78.6747 71.9734 78.5964 72.0518 78.6903 72.1771C78.6903 72.1771 78.5651 72.0988 78.5338 72.0988C78.4243 72.0518 78.6747 72.4123 78.5025 72.3496C78.5025 72.2555 78.4556 72.1772 78.393 72.0988C78.4556 72.3182 78.346 72.3496 78.2834 72.4279C78.2834 72.3809 78.2834 72.3496 78.2834 72.2555C78.2521 72.5376 78.1269 72.2242 78.0643 72.3966V72.2242C77.9861 72.0204 78.0643 72.5847 77.9391 72.4593C77.9704 72.4123 77.9704 72.3339 77.9704 72.2712C77.8452 72.569 77.6731 72.4436 77.5479 72.5063C77.5479 72.4906 77.5792 72.4436 77.5792 72.4436C77.454 72.4436 77.3914 72.3182 77.2192 72.3966C77.2192 72.3025 77.3914 72.0204 77.2662 72.0361C77.1253 72.3496 77.0314 72.0831 76.9219 72.4593C76.8436 72.3652 76.781 72.1772 76.6558 72.2398C76.7654 72.1458 76.8436 71.8637 76.9219 71.8793L76.9845 71.6756C77.0627 71.5659 77.0001 71.7383 77.0784 71.5815C77.0471 71.5815 76.8906 71.6286 76.8906 71.5815C76.7184 71.7069 76.4211 71.9891 76.2959 71.9264C76.4211 71.8637 76.515 71.6286 76.5776 71.5972C76.3898 71.7226 76.202 71.848 76.0142 71.9577C75.9672 71.942 76.202 71.754 76.0924 71.7696C76.0298 71.8323 75.9672 71.848 75.9046 71.8793C75.9203 71.848 75.7012 71.7696 75.9516 71.5502C76.0455 71.4562 76.0455 71.5502 76.1081 71.4561C76.0611 71.3935 75.9672 71.4561 75.9046 71.3935L75.9359 71.3621C75.9359 71.3621 75.7325 71.2837 75.5916 71.4405C75.5916 71.4875 75.7638 71.3308 75.7012 71.4405C75.5134 71.5032 75.4038 71.4091 75.3569 71.2994C75.4195 71.2994 75.4977 71.2681 75.5916 71.2524C75.2943 71.2524 75.1534 71.0329 75.0282 70.9076C74.8717 70.9232 75.3256 70.9076 75.2473 70.9389C75.4351 70.7508 74.903 70.5784 75.263 70.406C75.2943 70.4373 75.0282 70.406 75.0752 70.406C75.1065 70.3119 75.3412 70.3276 75.2786 70.2649C75.4195 70.2649 75.263 70.2022 75.2317 70.1239C75.1378 70.0768 75.3099 70.1239 75.2943 70.1709C75.1847 70.0925 75.1378 69.7007 75.4664 69.638C75.3725 69.6223 75.2004 69.4342 75.2473 69.4029L75.4508 69.4969C75.6073 69.5283 75.529 69.4029 75.7168 69.4656C75.5134 69.3088 75.6855 69.7634 75.576 69.6066C75.7794 69.6536 75.3569 69.3715 75.6229 69.4969C75.6699 69.4499 75.4977 69.2775 75.7638 69.3402C75.7168 69.3402 75.9985 69.5126 76.0455 69.4812C76.1081 69.4185 75.9672 69.4185 75.9829 69.3402L75.9516 69.2618C75.7481 69.1364 76.0611 69.2304 75.7951 69.1051C75.9829 69.2148 75.842 68.964 76.1707 69.1991L76.4211 69.3872C76.4211 69.3872 76.2176 69.1678 76.1394 69.0737C76.1707 69.0894 76.2333 69.1207 76.2802 69.1521C75.9046 68.8386 76.4211 69.1521 76.202 68.8699C76.4367 68.9483 76.5463 68.7916 76.8123 69.0424C76.8123 68.9013 76.8593 68.7446 77.0784 68.8386C77.0784 68.8856 77.0314 68.9013 77.0784 68.9953C77.2505 69.1207 77.1879 68.9953 77.2662 68.9326C77.2662 68.9953 77.6418 69.2304 77.7513 69.4185C77.8765 69.3245 77.8296 69.0894 77.8452 68.9483C77.9704 69.2148 78.1113 69.2148 78.3304 69.2304C78.5182 69.2148 78.8468 69.3558 78.8312 69.6223C78.706 69.5596 78.3773 69.5126 78.5025 69.732C78.4712 69.9201 78.5182 69.9515 78.6434 69.9828C78.8155 70.0141 79.0503 70.0925 79.0346 70.2806C79.1442 70.2336 79.2381 70.1866 79.332 70.1395C79.2068 70.3276 79.8172 70.6568 79.3946 70.5941C79.5668 70.7195 79.3633 70.8762 79.7233 70.9389C79.5041 71.2367 79.9267 71.8793 79.332 71.5815C79.3789 71.6599 79.332 71.6756 79.4885 71.801C79.6763 71.895 79.3633 71.6286 79.4885 71.7069C79.4885 71.7383 79.5824 71.8167 79.6294 71.848C79.5511 71.848 79.5198 71.8793 79.2694 71.6129C79.0816 71.5659 79.7702 72.2085 79.5981 72.2869C79.4885 72.1615 79.4416 72.1301 79.4572 72.1928L79.6137 72.4906C79.5355 72.5533 79.3633 72.2712 79.1911 72.0674C79.1911 72.1615 79.1911 72.2085 79.285 72.3966L79.0816 72.1928C79.2381 72.3496 79.1598 72.3652 79.1755 72.4436L79.1442 72.3652C79.0816 72.2869 79.0972 72.3966 79.0972 72.4593C79.1755 72.5847 79.2537 72.5847 79.285 72.5847C79.332 72.7101 79.2851 72.7257 79.3477 72.8668C79.2225 72.6474 79.2068 72.8041 79.1599 72.8041C79.0973 72.8041 79.2224 73.0392 79.2068 73.0549C79.1442 72.9452 79.1285 73.1019 79.0816 72.9138C79.0816 72.8668 79.1599 72.9922 79.1286 72.8668C79.0659 72.8041 78.972 72.616 78.9877 72.8198C78.9877 72.9608 79.1911 73.243 79.0503 73.1803C79.0503 73.1019 79.019 73.0079 79.0033 72.9295L78.8781 72.8825L78.9564 73.0862C78.9564 73.0862 78.9251 73.0235 78.9094 72.9922C78.972 73.2273 78.7999 73.1489 78.8625 73.3997C78.8155 73.4467 78.706 73.3213 78.659 73.3213C78.5651 73.2116 78.5025 73.3214 78.4712 73.4781V73.4311C78.4712 73.4311 78.346 73.4938 78.3147 73.6192C78.1895 73.4781 78.1895 72.8668 78.1269 73.1333C78.0487 73.1489 78.0017 73.5251 78.0487 73.6505C77.9235 73.5408 77.5166 73.8543 77.3288 73.4467C77.2662 73.5094 77.2662 73.5721 77.1723 73.5878C76.9688 73.4624 76.6715 73.3684 76.4367 73.1489C76.202 72.9295 76.0768 72.6003 76.2176 72.3496C76.3428 72.475 76.4211 72.3025 76.5306 72.2712C76.3272 72.2085 76.6871 72.1301 76.3741 72.1301C76.202 72.1615 76.0924 72.1615 76.0611 72.3339C75.8577 72.0204 75.9672 71.4248 76.202 71.3464C76.0924 71.3935 76.0611 71.3151 76.0298 71.2367C76.2959 71.3621 76.4054 71.1897 76.4054 71.0173L76.2646 70.9076C76.2646 70.9076 76.4054 70.9076 76.468 70.9389C76.468 70.8605 76.2176 70.6568 76.4367 70.6568C76.4993 70.7038 76.5463 70.7351 76.6089 70.7508C76.5932 70.5471 76.6089 70.2179 76.828 70.2493C76.9062 70.2963 77.0001 70.359 77.0627 70.406C77.094 70.359 77.1253 70.1552 76.9845 70.1552C77.2975 70.1552 77.454 70.1552 77.5792 70.3433C77.8452 69.6536 78.7529 69.7007 79.1599 69.9985L79.0816 70.1082C79.1442 70.2806 79.2537 69.9358 79.285 70.0612C79.1911 70.1552 79.2381 70.3433 79.0659 70.4373C79.1285 70.6411 79.3633 70.3433 79.5042 70.3746C79.6294 70.2493 79.3633 70.406 79.5042 70.2493C79.5668 70.2179 79.6294 70.5157 79.8172 70.3276C79.7859 70.4373 79.6294 70.5627 79.5355 70.6254L79.692 70.5941C79.5511 70.8919 79.1285 70.8292 78.972 71.2054H79.0503C78.8938 71.4561 78.7373 71.3621 78.7686 71.5188C78.8938 71.4562 79.2068 71.2367 79.2381 71.0956C79.4103 71.1583 79.7546 70.7038 79.8798 70.8919C79.8015 71.033 79.7389 70.7822 79.5981 70.9546C79.5042 71.1583 79.8172 71.033 79.8172 71.1583C79.8485 71.0173 80.1145 70.9232 80.1928 70.9703C80.1615 71.1427 79.9424 71.0486 80.005 71.2054C80.1458 71.1427 80.3336 71.2367 80.3493 71.0486C80.6936 70.9389 80.3493 71.2681 80.6466 71.2367C80.4432 71.3778 80.0676 71.3151 80.0206 71.5345C80.2241 71.4091 80.4119 71.6286 80.6936 71.4091C80.6623 71.5188 80.4901 71.5815 80.3336 71.5815C80.2241 71.7226 80.8344 71.7226 80.3806 71.8793H80.631C80.631 71.8793 80.5214 71.9891 80.3962 72.0674C80.4119 72.1458 80.7562 72.3809 80.3962 72.3809C80.4432 72.4123 80.3962 72.6474 80.6623 72.569C80.8188 72.3966 80.4901 72.3966 80.8188 72.2869C80.5527 72.4123 80.8657 72.522 80.944 72.6474H80.8031C80.8031 72.6474 80.8031 72.8511 80.944 72.9138C80.8657 72.8511 80.7718 72.8668 80.7249 72.9138L80.9283 73.0235C80.9753 73.3057 80.5527 72.9922 80.5527 73.2273C80.5214 73.1489 80.4901 73.0862 80.4432 73.0235C80.4745 73.0706 80.2554 73.0862 80.2867 73.196C80.4588 73.29 80.6466 73.4624 80.7718 73.5565C80.7875 73.7289 80.5527 73.5251 80.6623 73.7289C80.6153 73.6348 80.5684 73.5565 80.5214 73.4781C80.4745 73.4311 80.1771 73.4467 80.1145 73.5721C80.1145 73.6818 80.271 73.9797 80.4588 73.9013C80.4119 73.9797 80.2397 74.011 80.1615 73.8699C80.1145 74.058 80.3493 73.9797 80.3493 74.1834C80.2084 74.1521 79.9267 74.1834 79.7233 74.1207C79.6763 74.011 79.645 73.9013 79.5824 73.7916L79.5198 73.8543C79.4103 73.6035 79.3476 73.7445 79.1911 73.5094C79.1285 73.5094 79.1598 73.6035 79.1755 73.6975C79.5824 73.9326 79.4259 74.2775 79.692 74.5753C79.5041 74.8417 79.0346 73.8386 79.1286 74.5126C79.2225 74.5909 79.2381 74.9201 79.332 74.732C79.1598 74.7634 79.4103 75.1552 79.1442 75.0925C79.2068 74.8887 78.8468 74.779 78.9407 74.4655C78.9877 74.5909 79.0816 74.5126 79.0816 74.4655C78.9564 74.3558 78.9094 74.105 78.7999 74.1521C78.7529 74.2148 78.6434 74.2618 78.7216 74.4499C78.7999 74.6693 78.8468 74.3872 78.8625 74.6223C78.706 74.7634 78.5808 74.4342 78.6121 74.8417C78.7216 74.779 78.8312 74.9985 78.8625 75.1552C78.8155 75.2022 78.7686 75.2492 78.7216 75.2963V75.1395C78.4399 75.0925 78.706 75.4373 78.4243 75.4373L78.2678 75.1552C78.2991 74.8887 78.6434 75.2179 78.5182 74.7947C78.3773 74.7947 78.346 75.0298 78.1895 74.9358C78.2208 74.8887 78.2678 74.8887 78.2834 74.8417C78.2208 74.8417 78.1426 74.2775 77.9704 74.6066C77.8609 74.732 77.9391 74.7634 77.9391 74.9201C77.6887 74.9514 77.5792 75.1082 77.3914 75.0925C77.4853 74.7947 77.094 74.9828 77.3601 74.732C77.3914 74.9358 77.7983 74.9828 77.8922 74.685C77.8296 74.3245 78.0643 74.732 78.0956 74.3558C77.9391 74.3558 77.9548 73.9797 77.9391 73.7445C77.9078 73.7445 77.8765 73.8229 77.8452 73.8543C77.8139 74.0737 77.8452 74.0737 77.8452 74.3088C77.6731 74.2304 77.5009 74.3245 77.3288 74.4969C77.2975 74.3715 77.3914 74.1677 77.4696 74.1677C77.2505 74.1677 77.0314 74.0267 76.9219 73.8543C76.8123 74.2304 76.6871 73.7759 76.5619 74.058C76.5932 74.1991 76.5619 74.4812 76.3741 74.5753C76.3115 74.4969 76.468 74.4499 76.4837 74.3715C76.2646 74.4499 76.5619 74.0267 76.2646 74.1677C76.5306 74.2618 76.6089 73.8856 76.8436 73.7132C76.6402 73.7445 76.9845 73.5721 76.9062 73.4938C76.7184 73.5251 76.515 73.4624 76.3898 73.3527C76.5463 73.0862 76.2333 72.9452 76.1863 72.7728C76.3115 72.663 76.6402 72.663 76.6871 72.6003C76.6715 72.522 76.3428 72.7101 76.4837 72.5533H76.5463C76.468 72.522 76.7497 72.3496 76.2959 72.2712L76.6402 72.3339C76.6402 72.3339 76.5932 72.2869 76.5619 72.2712C76.6715 72.2712 76.781 72.2712 76.8593 72.3025C77.094 72.2712 76.8436 72.1772 76.8436 72.0988H76.6245C76.4993 71.9264 76.7341 71.8793 76.7184 71.7383L76.9062 71.8323L76.8436 71.7069C77.0158 71.8167 77.141 71.8323 77.0314 71.7069C77.141 71.848 77.2505 71.9734 77.3914 72.0831C77.2662 72.0674 77.1879 71.942 77.0001 71.8793C76.828 71.8323 76.828 71.9734 77.0001 72.0361C77.0314 72.0047 77.0001 71.9891 76.9375 71.942C77.2036 72.0361 77.1723 72.0831 77.3444 72.1615C77.3444 72.1458 77.4227 72.1615 77.3444 72.1301C77.454 72.2085 77.4853 72.2242 77.4696 72.2712C77.3757 72.2242 77.2975 72.2398 77.2192 72.2085C77.454 72.2712 77.5322 72.3182 77.454 72.3496C77.1723 72.3652 77.6261 72.4436 77.5635 72.4906C77.3131 72.4906 77.1097 72.4593 77.0158 72.3966C76.8906 72.4593 77.0158 72.4593 76.8906 72.522C77.0784 72.5377 77.3757 72.522 77.4853 72.5533L77.2975 72.5847C77.3914 72.616 77.6731 72.5533 77.6261 72.6003C77.5635 72.6944 77.5948 72.7728 77.6261 72.8198L77.4853 72.9295C77.8139 72.7101 77.6731 72.9138 77.7983 72.7884C77.767 72.9765 77.9235 72.663 77.8765 72.9765C78.033 72.8511 78.0643 72.7101 78.1739 72.7257L78.2678 72.9765C78.2052 72.7884 78.346 73.1176 78.3617 73.0549C78.2365 72.8825 78.2678 72.7884 78.1895 72.6474C78.346 72.8041 78.2678 72.569 78.1113 72.4436L78.2521 72.569C77.9861 72.3339 78.2208 72.5377 78.2991 72.522C78.3773 72.5533 78.5495 72.5847 78.5182 72.569C78.2678 72.475 78.1739 72.4906 78.1426 72.475C78.0643 72.475 78.1113 72.475 78.2521 72.4279C78.0487 72.4593 78.08 72.4593 77.9391 72.475L78.0017 72.3809C78.0017 72.3809 77.9548 72.4593 77.9704 72.4279C77.9704 72.4279 77.9861 72.3966 78.0017 72.3809C78.0017 72.3496 78.0174 72.3182 78.033 72.2869V72.2555V72.0831V72.1301C78.033 72.1772 78.0487 72.2242 78.0643 72.2398C78.0643 72.2398 78.0643 72.2398 78.0643 72.2555C78.0643 72.2555 78.033 72.2085 78.0017 72.1771C77.9548 72.1301 77.9548 72.1301 77.9078 72.0988C77.7983 72.0204 77.7357 72.0204 77.7357 72.0204C77.7044 72.0204 77.767 72.0204 77.7357 72.0204C77.6105 72.0831 77.7826 71.9891 77.8139 71.8166C77.8139 71.8166 77.8139 71.801 77.8139 71.7853V71.7383L77.9078 70.9859H77.8922C77.8609 71.0016 77.8296 71.0329 77.8609 71.0486C77.8765 71.08 77.8922 71.0956 77.9078 70.9859C77.9078 71.0486 77.9078 71.1897 77.9391 71.2054C77.9391 71.1583 77.9235 71.0486 77.9235 70.9859C77.9235 70.7665 78.0643 71.1427 78.0956 71.0173C78.0487 70.7508 78.0643 70.7665 78.0174 70.6568H78.0487C77.9391 70.6098 78.0956 70.6568 77.9548 70.5784C77.9548 70.5784 77.9548 70.5627 77.9861 70.5784C77.9548 70.5784 77.9548 70.5471 77.9391 70.5314C77.9235 70.5314 77.9078 70.5 77.8922 70.5C77.8922 70.5 77.8296 70.4687 77.7826 70.4217C77.7826 70.4217 77.7826 70.4217 77.7826 70.3903C77.7357 70.3433 77.7826 70.453 77.7044 70.3433L77.7357 70.3903C77.5792 70.2963 77.5322 70.3746 77.5479 70.4217C77.2975 70.3746 77.0158 70.2179 77.1879 70.3276C77.1097 70.3119 77.3131 70.3746 77.2349 70.3433C77.3131 70.3746 76.7967 70.2649 76.9688 70.3433C77.2036 70.3903 77.0784 70.3903 77.2192 70.4217C77.0314 70.4217 76.7967 70.4217 76.9532 70.5H76.828C77.1723 70.5627 76.9688 70.6411 77.407 70.6254V70.6568C76.1237 70.8762 77.0471 70.7195 76.7654 70.7665C76.781 70.7665 76.8436 70.7508 76.8906 70.7351C76.9845 70.7038 77.1097 70.6411 77.2505 70.5471L77.4227 70.4373C77.4227 70.4373 77.4383 70.4373 77.454 70.4373C77.4696 70.4373 77.5009 70.4373 77.5479 70.4373C77.6887 70.453 77.8452 70.4687 78.0174 70.5C78.1269 70.2963 77.8609 71.1427 77.8922 71.3621C77.8922 71.5032 77.8922 71.5815 77.9078 71.6129L77.9548 71.7383C77.9548 71.7383 77.9861 71.801 77.9861 71.7853C78.0174 71.801 77.8765 71.6913 77.7044 71.6756C77.5322 71.6442 77.407 71.6913 77.4383 71.6756C77.4696 71.6599 77.5009 71.6599 77.6105 71.5659C77.6105 71.5659 77.6887 71.5032 77.6887 71.4875C77.7513 71.4405 77.767 71.3308 77.767 71.3778L77.7357 71.6442V71.6286V71.6756V71.6913C77.7357 71.6913 77.7357 71.7383 77.7357 71.7069C77.767 71.8793 78.0017 72.1145 78.0487 72.1145C78.1113 72.1458 77.9078 72.0518 77.7357 72.0674L76.4524 71.4718C76.4524 71.4718 76.4524 71.5659 76.4524 71.5345C76.4837 71.5659 76.3428 71.3621 76.1863 71.3151C75.9359 71.2054 75.9516 71.2837 76.1863 71.2367C76.4367 71.1897 76.5619 70.9703 76.468 71.1427C76.4993 71.1427 76.3741 71.1427 76.6715 70.8605L76.8436 70.7665Z" fill="white"/>
<path d="M77.7047 71.9422C77.5795 71.8482 77.4856 71.8481 77.3447 71.6914C77.4699 71.7698 77.5951 71.8482 77.7047 71.9422Z" fill="white"/>
<path d="M76.6094 73.8228C76.6094 73.8228 76.6094 73.9012 76.5937 73.9168C76.5622 73.9012 76.4364 73.9482 76.4679 73.8698C76.4993 73.9012 76.5465 73.8385 76.6094 73.8071V73.8228Z" fill="white"/>
<path d="M77.2819 74.3872C77.2193 74.5126 76.9846 74.5126 76.8594 74.4656C77.0159 74.4656 77.1411 74.4342 77.2819 74.3872Z" fill="white"/>
<path d="M78.0492 75.1084C78.1278 75.2181 78.1121 75.2808 77.9863 75.2808C77.9863 75.2024 78.0178 75.1711 78.0492 75.1084Z" fill="white"/>
<path d="M78.1112 74.7949C78.1112 74.7949 78.2213 74.8733 78.2528 74.936C78.2528 74.8263 78.0798 75.0144 78.1112 74.7949Z" fill="white"/>
<path d="M79.9893 74.5127C79.9893 74.5127 80.0207 74.3246 80.1622 74.3873C80.0522 74.3403 80.0836 74.6851 79.9893 74.5127Z" fill="white"/>
<path d="M80.4746 73.6347C80.4746 73.6347 80.5218 73.6033 80.5061 73.5563C80.5847 73.525 80.6476 73.6347 80.6318 73.6817L80.4746 73.619V73.6347Z" fill="white"/>
<path d="M79.1289 69.9199L79.2861 70.0453L79.1289 70.0767V69.9199Z" fill="white"/>
<path d="M75.123 71.3306C75.2331 71.3776 75.0287 71.4246 75.013 71.456C74.9658 71.3933 75.1702 71.4246 75.123 71.3306Z" fill="white"/>
<path d="M77.1407 72.4124H77.125L77.2351 72.1616L77.1407 72.4124Z" fill="white"/>
</svg>
