<svg width="169" height="22" viewBox="0 0 169 22" fill="none" xmlns="http://www.w3.org/2000/svg">
<path d="M85.4068 16.5698C84.8292 16.5903 84.268 16.3817 83.8461 15.9933C83.416 15.5762 83.1866 14.9915 83.2111 14.3945V10.1378H81.8594V8.83342H83.2111V6.50269H84.6571V8.83342H86.5414V10.1378H84.6571V13.9283C84.6121 14.3004 84.7186 14.6725 84.9562 14.9628C85.1364 15.1387 85.3781 15.2368 85.6321 15.2368C85.7467 15.2368 85.8573 15.2245 85.9679 15.1959C86.0744 15.1714 86.1769 15.1387 86.2752 15.0937L86.7299 16.3695C86.3038 16.5126 85.8573 16.5821 85.4108 16.5698H85.4068Z" fill="#38BDAE"/>
<path d="M91.2932 16.6966C90.2405 16.7293 89.2246 16.3122 88.4996 15.5476C87.7582 14.7625 87.3649 13.7198 87.4018 12.6444C87.369 11.5771 87.75 10.5385 88.4668 9.74936C89.9579 8.22825 92.3992 8.20372 93.9231 9.68802C94.644 10.5426 95.0045 11.6426 94.9348 12.7548L94.9185 12.9102H88.8724C88.8642 13.5889 89.1386 14.2391 89.6261 14.7134C90.601 15.6498 92.1494 15.6212 93.0874 14.648C93.2636 14.464 93.411 14.2554 93.5216 14.0305L94.8079 14.6521C94.4761 15.2777 93.9804 15.8011 93.3701 16.1609C92.7392 16.5289 92.0183 16.717 91.2892 16.7048L91.2932 16.6966ZM88.9871 11.7243H93.3987C93.366 11.2173 93.1325 10.743 92.7474 10.4118C92.305 10.0479 91.7438 9.85976 91.1704 9.88839C90.6583 9.87612 90.1586 10.056 89.7653 10.3872C89.3639 10.7348 89.0895 11.201 88.9871 11.7203V11.7243Z" fill="#38BDAE"/>
<path d="M99.8542 16.6965C98.7892 16.7251 97.7569 16.308 97.0155 15.5434C96.274 14.7583 95.8726 13.7156 95.9013 12.6402C95.8685 11.5607 96.2699 10.518 97.0155 9.73698C97.761 8.97234 98.7892 8.55526 99.8583 8.58797C100.587 8.57161 101.304 8.77607 101.915 9.16861C102.504 9.56115 102.963 10.1213 103.234 10.7756L101.915 11.3194C101.591 10.4239 100.718 9.84329 99.7641 9.89236C99.1046 9.89236 98.4778 10.1827 98.0518 10.6856C97.1097 11.8224 97.1097 13.4662 98.0518 14.6029C98.9202 15.5761 100.415 15.666 101.39 14.7992C101.648 14.5702 101.853 14.284 101.992 13.965L103.279 14.5088C103.017 15.1713 102.55 15.7315 101.951 16.1158C101.325 16.5125 100.596 16.7128 99.8542 16.7006V16.6965Z" fill="#38BDAE"/>
<path d="M104.532 5.32495H105.978V8.8374L105.917 9.89237H105.978C106.224 9.49573 106.576 9.1727 106.99 8.96007C107.424 8.71882 107.912 8.58798 108.411 8.58798C109.218 8.53482 110.009 8.82514 110.587 9.38942C111.127 10.0191 111.402 10.8369 111.348 11.6629V16.447H109.902V11.941C109.902 10.5752 109.288 9.89237 108.063 9.89237C107.486 9.89237 106.937 10.1582 106.58 10.612C106.183 11.0823 105.966 11.6834 105.978 12.2967V16.443H104.532V5.32495Z" fill="#38BDAE"/>
<path d="M113.04 8.83339H114.421V9.88835H114.482C114.728 9.49172 115.08 9.16869 115.494 8.95606C115.928 8.71481 116.416 8.58396 116.916 8.58396C117.722 8.5308 118.513 8.82112 119.091 9.38541C119.631 10.0151 119.906 10.8329 119.853 11.6589V16.443H118.407V11.7529C118.513 10.8247 117.845 9.99058 116.916 9.88426C116.78 9.86791 116.641 9.872 116.506 9.88426C115.945 9.87609 115.408 10.1337 115.06 10.5753C114.671 11.0374 114.466 11.6262 114.478 12.2273V16.4348H113.032V8.82521L113.04 8.83339Z" fill="#38BDAE"/>
<path d="M121.114 12.6402C121.077 11.5607 121.478 10.5139 122.228 9.73698C122.973 8.97234 124.002 8.55935 125.071 8.58797C126.132 8.55526 127.16 8.97234 127.897 9.73698C129.405 11.3808 129.405 13.9037 127.897 15.5475C127.16 16.3121 126.132 16.7292 125.071 16.6965C124.006 16.7251 122.973 16.3121 122.228 15.5475C121.478 14.7705 121.077 13.7197 121.114 12.6443V12.6402ZM122.56 12.6402C122.527 13.3721 122.789 14.0877 123.281 14.6274C124.231 15.6129 125.8 15.6456 126.791 14.6969C126.816 14.6724 126.84 14.652 126.861 14.6274C127.823 13.4825 127.823 11.8101 126.861 10.6652C125.935 9.67973 124.387 9.62658 123.399 10.5507C123.358 10.5875 123.322 10.6284 123.285 10.6652C122.789 11.2008 122.531 11.9123 122.56 12.6402Z" fill="#38BDAE"/>
<path d="M131.711 5.32495V16.447H130.265V5.32495H131.711Z" fill="#38BDAE"/>
<path d="M132.953 12.6402C132.916 11.5607 133.317 10.5139 134.067 9.73698C134.812 8.97234 135.84 8.55526 136.91 8.58797C137.97 8.55526 138.999 8.97234 139.736 9.73698C141.243 11.3808 141.243 13.9037 139.736 15.5475C138.999 16.3121 137.97 16.7292 136.91 16.6965C135.845 16.7292 134.812 16.3121 134.067 15.5475C133.317 14.7705 132.916 13.7197 132.953 12.6443V12.6402ZM134.399 12.6402C134.366 13.3721 134.628 14.0877 135.119 14.6274C136.07 15.6129 137.639 15.6456 138.63 14.6969C138.655 14.6724 138.679 14.652 138.7 14.6274C139.662 13.4825 139.662 11.8101 138.7 10.6652C137.774 9.67973 136.225 9.62658 135.238 10.5507C135.197 10.5875 135.16 10.6284 135.124 10.6652C134.632 11.2008 134.37 11.9123 134.403 12.6402H134.399Z" fill="#38BDAE"/>
<path d="M145.593 20.0495C145.183 20.0495 144.778 19.9963 144.384 19.8859C144.02 19.7837 143.676 19.6283 143.356 19.4279C143.057 19.2398 142.791 19.0027 142.566 18.7328C142.344 18.4629 142.177 18.1603 142.062 17.8332L143.426 17.273C143.577 17.7106 143.86 18.0827 144.241 18.3444C144.638 18.6183 145.109 18.7573 145.593 18.7492C146.277 18.7901 146.945 18.5365 147.428 18.054C147.891 17.5225 148.128 16.8314 148.087 16.1281V15.3921H148.026C147.747 15.801 147.367 16.1322 146.92 16.3489C146.449 16.582 145.929 16.7006 145.404 16.6965C144.413 16.7006 143.467 16.2753 142.811 15.5311C142.103 14.7379 141.718 13.7033 141.742 12.6402C141.718 11.5811 142.099 10.5548 142.811 9.76971C143.459 9.01734 144.409 8.5839 145.404 8.58799C145.929 8.5839 146.449 8.70248 146.92 8.93556C147.367 9.15227 147.747 9.48348 148.026 9.89238H148.087V8.82924H149.472V16.1158C149.64 18.1154 148.157 19.8736 146.154 20.0413C145.97 20.0576 145.781 20.0576 145.597 20.0454L145.593 20.0495ZM145.638 15.3921C146.306 15.4125 146.945 15.1345 147.383 14.6315C148.325 13.4784 148.325 11.8224 147.383 10.6693C146.949 10.1623 146.31 9.88012 145.638 9.89238C144.97 9.88012 144.331 10.1663 143.893 10.6693C143.414 11.2131 143.16 11.9205 143.184 12.6443C143.156 13.368 143.41 14.0713 143.893 14.6111C144.331 15.1181 144.966 15.4044 145.638 15.3962V15.3921Z" fill="#38BDAE"/>
<path d="M153.097 6.20823C153.101 6.4781 152.995 6.73571 152.798 6.9238C152.397 7.31635 151.754 7.31635 151.352 6.9238C150.959 6.53535 150.955 5.89746 151.344 5.50083C151.344 5.50083 151.348 5.49674 151.352 5.49265C151.754 5.10011 152.397 5.10011 152.798 5.49265C152.991 5.68074 153.101 5.93835 153.097 6.20823ZM152.798 8.83337V16.443H151.352V8.83337H152.798Z" fill="#38BDAE"/>
<path d="M158.059 16.6966C157.006 16.7293 155.99 16.3122 155.265 15.5476C154.524 14.7625 154.13 13.7198 154.163 12.6444C154.13 11.5771 154.511 10.5385 155.232 9.74936C156.723 8.22825 159.165 8.20372 160.688 9.68802C161.409 10.5426 161.77 11.6426 161.7 12.7548L161.684 12.9102H155.638C155.63 13.5889 155.904 14.2391 156.391 14.7134C157.362 15.6498 158.911 15.6212 159.849 14.6521C160.025 14.4681 160.172 14.2595 160.283 14.0305L161.569 14.6521C161.241 15.2777 160.742 15.8011 160.131 16.1609C159.501 16.5289 158.78 16.717 158.05 16.7048L158.059 16.6966ZM155.752 11.7243H160.164C160.131 11.2173 159.898 10.743 159.513 10.4118C159.07 10.0479 158.509 9.85976 157.936 9.88839C157.424 9.87612 156.924 10.056 156.531 10.3872C156.129 10.7348 155.859 11.201 155.757 11.7203L155.752 11.7243Z" fill="#38BDAE"/>
<path d="M168.987 14.3331C168.987 15.0037 168.655 15.6293 168.106 16.0096C167.467 16.4839 166.685 16.7252 165.894 16.6925C165.169 16.7088 164.456 16.5003 163.854 16.0955C163.281 15.7152 162.842 15.1632 162.597 14.5212L163.887 13.9774C164.055 14.4067 164.342 14.7747 164.714 15.0446C165.059 15.294 165.476 15.4249 165.898 15.4249C166.304 15.4412 166.705 15.339 167.053 15.1305C167.32 14.9996 167.496 14.7338 167.516 14.4353C167.516 13.9487 167.139 13.5889 166.382 13.364L165.063 13.0369C163.563 12.6648 162.818 11.9492 162.818 10.8942C162.801 10.2277 163.125 9.60212 163.674 9.22593C164.891 8.44494 166.439 8.38769 167.709 9.07873C168.229 9.36496 168.635 9.81884 168.864 10.3668L167.578 10.8942C167.43 10.5712 167.176 10.3054 166.865 10.1419C166.525 9.95787 166.144 9.86382 165.759 9.86791C165.403 9.86382 165.05 9.96196 164.747 10.15C164.485 10.2809 164.313 10.5426 164.301 10.8329C164.301 11.2663 164.714 11.5771 165.542 11.7652L166.705 12.0596C168.233 12.4276 168.999 13.1882 168.999 14.3372L168.987 14.3331Z" fill="#38BDAE"/>
<path d="M26.5479 5.3291H28.6083V8.4531L28.4813 9.83927H28.6083C28.8418 9.46308 29.1695 9.15641 29.5586 8.94378C29.9846 8.70662 30.4639 8.58804 30.9513 8.59621C31.7829 8.53079 32.598 8.84973 33.1592 9.46717C33.6672 10.1541 33.9211 10.9924 33.8761 11.847V16.4635H31.8198V12.0923C31.8484 11.6589 31.7133 11.2254 31.4388 10.8861C31.1644 10.6039 30.7793 10.4526 30.3861 10.4731C30.1239 10.469 29.8658 10.5303 29.6323 10.653C29.4111 10.7716 29.2227 10.9392 29.0753 11.1396C28.9196 11.3563 28.8008 11.6016 28.7271 11.8633C28.6451 12.1496 28.6083 12.444 28.6083 12.7425V16.4594H26.5519V5.3291H26.5479Z" fill="#38BDAE"/>
<path d="M42.8589 14.6234C42.5107 15.2368 42.0191 15.7561 41.4211 16.1323C40.7575 16.533 39.9874 16.7333 39.2132 16.7088C38.6561 16.7129 38.1031 16.6107 37.587 16.4062C37.1036 16.214 36.6612 15.9237 36.2885 15.5598C35.9198 15.1959 35.629 14.7583 35.4323 14.2758C35.2234 13.7606 35.121 13.2086 35.1251 12.6525C35.1251 12.1169 35.2234 11.5853 35.4241 11.0905C35.8092 10.1214 36.5629 9.34042 37.5214 8.92334C38.0294 8.70253 38.5783 8.59213 39.1313 8.60031C39.6966 8.59213 40.2577 8.69436 40.7821 8.90289C41.2409 9.09099 41.6546 9.37722 41.9905 9.74114C42.3223 10.1092 42.5721 10.5385 42.7278 11.0087C42.8998 11.5199 42.9859 12.0555 42.9777 12.5953V12.7834C42.9695 12.8406 42.9613 12.8979 42.9613 12.9551C42.949 13.0123 42.9449 13.0696 42.9449 13.1268H37.1446C37.1774 13.409 37.2634 13.6789 37.4026 13.9283C37.5296 14.145 37.6935 14.3331 37.8901 14.4885C38.0785 14.6357 38.2956 14.7461 38.525 14.8115C38.7544 14.8769 38.992 14.9137 39.2296 14.9137C39.6433 14.9301 40.0529 14.8197 40.4011 14.5948C40.7042 14.3903 40.9541 14.1164 41.1303 13.7933L42.8425 14.6316L42.8589 14.6234ZM40.9869 11.6711C40.9705 11.5158 40.9254 11.3604 40.8517 11.2214C40.7657 11.0455 40.6469 10.8902 40.5076 10.7552C40.3438 10.6039 40.1512 10.4812 39.9423 10.3995C39.6843 10.3013 39.4098 10.2523 39.1313 10.2604C38.7135 10.2523 38.3038 10.3831 37.9679 10.6325C37.6238 10.8942 37.3781 11.2582 37.2634 11.6752H40.9869V11.6711Z" fill="#38BDAE"/>
<path d="M44.3057 16.4594V5.3291H46.3661V16.4635H44.3057V16.4594Z" fill="#38BDAE"/>
<path d="M48.123 16.4594V5.3291H50.1835V16.4635H48.123V16.4594Z" fill="#38BDAE"/>
<path d="M59.158 14.6234C58.8098 15.2368 58.3142 15.7561 57.7202 16.1323C57.0566 16.533 56.2865 16.7333 55.5124 16.7088C54.9553 16.7129 54.4023 16.6107 53.8861 16.4062C53.4028 16.214 52.9604 15.9237 52.5876 15.5598C52.2189 15.1959 51.9281 14.7583 51.7315 14.2758C51.5226 13.7606 51.4161 13.2086 51.4243 12.6525C51.4243 12.1169 51.5226 11.5853 51.7233 11.0905C52.1083 10.1214 52.8621 9.34042 53.8206 8.92334C54.3285 8.70253 54.8774 8.59213 55.4304 8.60031C55.9957 8.59213 56.5569 8.69436 57.0812 8.90289C57.54 9.09099 57.9537 9.37722 58.2896 9.74114C58.6214 10.1092 58.8713 10.5385 59.027 11.0087C59.199 11.5199 59.285 12.0555 59.2768 12.5953V12.7834C59.2686 12.8406 59.2604 12.8979 59.2604 12.9551C59.2482 13.0123 59.2441 13.0696 59.2441 13.1268H53.4437C53.4765 13.409 53.5625 13.6789 53.7018 13.9283C53.8288 14.145 53.9926 14.3331 54.1892 14.4885C54.3777 14.6357 54.5948 14.7461 54.8242 14.8115C55.0536 14.8769 55.2911 14.9137 55.5287 14.9137C55.9425 14.9301 56.3521 14.8197 56.7003 14.5948C57.0034 14.3903 57.2533 14.1164 57.4294 13.7933L59.1457 14.6316L59.158 14.6234ZM57.286 11.6711C57.2697 11.5158 57.2246 11.3604 57.1509 11.2214C57.0648 11.0455 56.946 10.8902 56.8027 10.7552C56.6388 10.6039 56.4463 10.4812 56.2374 10.3995C55.9793 10.3013 55.7049 10.2523 55.4304 10.2604C55.0126 10.2523 54.603 10.3831 54.2671 10.6325C53.923 10.8942 53.6772 11.2582 53.5625 11.6752H57.286V11.6711Z" fill="#38BDAE"/>
<path d="M62.5377 9.83513H62.6647C62.9064 9.45077 63.2423 9.14 63.6396 8.92328C64.0697 8.6943 64.5531 8.57981 65.0406 8.58799C65.4748 8.57981 65.909 8.6575 66.3145 8.82106C66.6668 8.96417 66.974 9.19316 67.2198 9.48348C67.4656 9.78606 67.6458 10.1336 67.7523 10.5098C67.8752 10.9433 67.9366 11.389 67.9325 11.8387V16.4552H65.8721V12.0882C65.909 11.6506 65.7779 11.2131 65.5034 10.8656C65.2167 10.5875 64.8276 10.4403 64.4261 10.4689C64.1681 10.4648 63.91 10.5262 63.6806 10.6488C63.4635 10.7674 63.2792 10.931 63.1317 11.1313C62.9719 11.3481 62.8572 11.5893 62.7876 11.8469C62.7057 12.1332 62.6688 12.4276 62.6688 12.7261V16.4593H60.6084V8.8415H62.5418V9.83513H62.5377Z" fill="#38BDAE"/>
<path d="M70.7713 7.81518C70.5952 7.81518 70.4231 7.78247 70.2593 7.71295C70.0995 7.64753 69.9561 7.55348 69.8332 7.4349C69.7145 7.31632 69.6161 7.17729 69.5506 7.02191C69.4154 6.6907 69.4154 6.32269 69.5506 5.99148C69.8496 5.3168 70.6443 5.01421 71.3202 5.31271C71.4677 5.37813 71.5987 5.46809 71.7134 5.57849C72.2255 6.07326 72.2378 6.88698 71.7421 7.3981C71.7339 7.40628 71.7216 7.41855 71.7134 7.42672C71.4636 7.67615 71.1236 7.81518 70.7713 7.81109V7.81518ZM69.7513 16.4593V8.84152H71.8117V16.4593H69.7513Z" fill="#38BDAE"/>
<path d="M80.9264 14.5171C80.5987 15.1509 80.1153 15.6947 79.5214 16.0954C78.8496 16.5248 78.0631 16.7374 77.2643 16.7088C76.7031 16.7169 76.146 16.6106 75.6217 16.4062C75.1383 16.214 74.7 15.9278 74.3314 15.5598C73.9668 15.1917 73.6801 14.7542 73.4834 14.2758C73.2745 13.7606 73.168 13.2086 73.1762 12.6525C73.1721 12.0923 73.2745 11.5403 73.4834 11.021C73.676 10.5385 73.9668 10.105 74.3314 9.73701C74.7 9.37309 75.1383 9.09095 75.6217 8.89877C76.146 8.69432 76.7031 8.588 77.2643 8.59618C78.059 8.56756 78.8414 8.78019 79.5132 9.20135C80.103 9.58572 80.5659 10.1296 80.8485 10.7715L78.9643 11.5484C78.8127 11.2254 78.5751 10.9474 78.2802 10.747C77.9648 10.5548 77.6043 10.4608 77.2356 10.4771C76.9694 10.4771 76.7072 10.5303 76.4655 10.6325C75.9699 10.841 75.5848 11.2459 75.3964 11.7529C75.1875 12.3376 75.1875 12.9755 75.3964 13.5561C75.4906 13.8097 75.6422 14.0427 75.8306 14.239C76.0108 14.423 76.2279 14.5702 76.4655 14.6724C76.7072 14.7747 76.9694 14.8278 77.2356 14.8278C77.6207 14.8401 78.0016 14.742 78.3293 14.5416C78.6407 14.3371 78.8864 14.0468 79.0462 13.7115L80.9305 14.5211L80.9264 14.5171Z" fill="#38BDAE"/>
<path d="M0 11C0 16.7967 4.71833 21.5 10.5428 21.5H11.1958C17.0162 21.5 21.7386 16.8008 21.7386 11C21.7386 5.19919 17.0162 0.5 11.1958 0.5H10.5428C4.71833 0.5 0 5.19919 0 11ZM7.52647 15.8821C7.52647 16.1504 7.30606 16.3659 7.03667 16.3618H5.81219C5.54281 16.3618 5.32648 16.1463 5.3224 15.8821V6.11789C5.3224 5.84959 5.54281 5.63415 5.81219 5.63821H7.03667C7.30606 5.63821 7.52238 5.85366 7.52647 6.11789V15.878V15.8821ZM16.4162 15.8821C16.4162 16.0772 16.2978 16.252 16.1182 16.3293C16.057 16.3537 15.9917 16.3659 15.9264 16.3659H14.7019C14.4325 16.3659 14.2162 16.1504 14.2121 15.8862V12.7154C14.2121 12.3699 13.9305 12.0935 13.5836 12.0935H10.3101C10.0407 12.0935 9.82441 11.878 9.82032 11.6138V10.4024C9.82032 10.1341 10.0407 9.9187 10.3101 9.92276H13.6162C13.9468 9.92276 14.2162 9.65854 14.2203 9.32927V6.13008C14.2203 6 14.2733 5.87805 14.3631 5.78862C14.457 5.69919 14.5795 5.64634 14.7101 5.64634H15.9346C15.9999 5.64634 16.0652 5.65854 16.1264 5.68293C16.306 5.7561 16.4243 5.93496 16.4243 6.13008V15.8902L16.4162 15.8821Z" fill="#38BDAE"/>
</svg>
