<svg width="49" height="49" viewBox="0 0 49 49" fill="none" xmlns="http://www.w3.org/2000/svg">
<path d="M24.4996 28.3474C26.6233 28.3474 28.3448 26.6257 28.3448 24.5018C28.3448 22.3779 26.6233 20.6562 24.4996 20.6562C22.3759 20.6562 20.6543 22.3779 20.6543 24.5018C20.6543 26.6257 22.3759 28.3474 24.4996 28.3474Z" fill="#F43B56"/>
<path d="M49 24.5C48.9955 21.297 47.807 18.2088 45.6631 15.8293C43.5192 13.4498 40.5713 11.9471 37.3864 11.6101C37.0526 8.42397 35.5508 5.4744 33.1707 3.33042C30.7906 1.18644 27.7009 0 24.4977 0C21.2945 0 18.2047 1.18644 15.8246 3.33042C13.4445 5.4744 11.9427 8.42397 11.609 11.6101C8.42318 11.9439 5.47388 13.4458 3.33011 15.8261C1.18633 18.2065 0 21.2965 0 24.5C0 27.7035 1.18633 30.7935 3.33011 33.1739C5.47388 35.5542 8.42318 37.0561 11.609 37.3899C11.9427 40.576 13.4445 43.5256 15.8246 45.6696C18.2047 47.8136 21.2945 49 24.4977 49C27.7009 49 30.7906 47.8136 33.1707 45.6696C35.5508 43.5256 37.0526 40.576 37.3864 37.3899C40.5716 37.0537 43.52 35.5512 45.664 33.1715C47.808 30.7919 48.9963 27.7032 49 24.5ZM24.4977 2.82805C27.1831 2.83092 29.7577 3.89907 31.6566 5.79811C33.5554 7.69716 34.6235 10.272 34.6263 12.9577C34.636 16.8182 33.3437 20.5693 30.9583 23.6046C30.8376 22.7303 30.5404 21.8896 30.0847 21.1337V21.1229C28.4291 18.4063 26.1481 16.125 23.432 14.4689C20.7159 12.8129 17.6433 11.8302 14.4703 11.6028C14.8002 9.17569 15.9973 6.94999 17.8405 5.33702C19.6838 3.72404 22.0485 2.83282 24.4977 2.82805ZM23.6096 28.0852C22.7791 27.8802 22.0453 27.3935 21.5334 26.7081C21.0214 26.0227 20.763 25.1809 20.8022 24.3262C20.8413 23.4716 21.1757 22.657 21.7481 22.0212C22.3206 21.3855 23.0958 20.968 23.9416 20.8399C24.7875 20.7118 25.6515 20.881 26.3866 21.3187C27.1216 21.7563 27.6821 22.4354 27.9726 23.2401C28.2631 24.0448 28.2655 24.9254 27.9795 25.7317C27.6934 26.538 27.1367 27.2202 26.404 27.6619C25.9893 27.9136 25.5288 28.0806 25.0492 28.1532C24.5695 28.2259 24.0803 28.2027 23.6096 28.0852ZM2.82778 24.5C2.83065 21.8143 3.8987 19.2395 5.79757 17.3405C7.69644 15.4414 10.271 14.3733 12.9564 14.3704C16.8172 14.3606 20.5685 15.653 23.6042 18.0388C22.7293 18.1593 21.8881 18.4565 21.1317 18.9124H21.1209C18.4044 20.5685 16.1232 22.85 14.4674 25.5667C12.8115 28.2834 11.829 31.3566 11.6017 34.5301C9.17467 34.1998 6.94915 33.0022 5.33636 31.1585C3.72357 29.3148 2.8325 26.9497 2.82778 24.5ZM24.4977 46.1738C21.8123 46.1709 19.2377 45.1027 17.3388 43.2037C15.4399 41.3046 14.3719 38.7298 14.369 36.0441C14.3599 32.1845 15.6514 28.4343 18.0352 25.399C18.1563 26.273 18.4542 27.1131 18.9106 27.8681V27.879C20.5668 30.5956 22.8481 32.877 25.5645 34.5333C28.2808 36.1896 31.3536 37.1727 34.5269 37.4008C34.1962 39.8277 32.9985 42.053 31.155 43.6656C29.3116 45.2782 26.9468 46.1691 24.4977 46.1738ZM36.0425 34.6296C32.1846 34.6395 28.4359 33.3484 25.402 30.9649C26.2746 30.842 27.1132 30.5436 27.8673 30.0876H27.8781C30.5947 28.4315 32.8761 26.15 34.5322 23.4334C36.1884 20.7167 37.1713 17.6435 37.3991 14.4699C39.9325 14.8273 42.2368 16.1303 43.8489 18.1171C45.4611 20.104 46.2618 22.6273 46.09 25.1803C45.9182 27.7333 44.7867 30.1266 42.9229 31.8795C41.0591 33.6324 38.601 34.6149 36.0425 34.6296Z" fill="black"/>
</svg>
