<svg width="244" height="244" viewBox="0 0 244 244" fill="none" xmlns="http://www.w3.org/2000/svg">
<path d="M237 122C237 185.513 185.513 237 122 237C58.4873 237 7 185.513 7 122C7 58.4873 58.4873 7 122 7C185.513 7 237 58.4873 237 122ZM55.3 122C55.3 158.837 85.1626 188.7 122 188.7C158.837 188.7 188.7 158.837 188.7 122C188.7 85.1626 158.837 55.3 122 55.3C85.1626 55.3 55.3 85.1626 55.3 122Z" fill="#F58773"/>
<path d="M211.298 126.774C210.227 127.221 209.272 127.708 208.433 128.232C207.591 128.781 206.907 129.422 206.381 130.155C205.854 130.887 205.529 131.754 205.405 132.754C205.24 134.088 205.476 135.206 206.114 136.107C206.752 137.008 207.643 137.53 208.786 137.672C209.906 137.81 210.831 137.659 211.563 137.218C212.295 136.776 212.917 136.152 213.428 135.345C213.96 134.564 214.452 133.718 214.903 132.807C215.194 132.214 215.554 131.558 215.982 130.837C216.433 130.119 216.964 129.447 217.574 128.821C218.207 128.198 218.945 127.709 219.787 127.354C220.626 127.023 221.617 126.928 222.76 127.07C223.999 127.223 225.068 127.67 225.968 128.411C226.868 129.151 227.524 130.103 227.936 131.266C228.371 132.433 228.502 133.719 228.328 135.124C228.16 136.482 227.752 137.628 227.104 138.563C226.477 139.526 225.714 140.314 224.815 140.928C223.941 141.545 223.038 142.001 222.106 142.297L220.929 139.503C221.587 139.27 222.243 138.952 222.897 138.55C223.552 138.147 224.112 137.624 224.579 136.981C225.043 136.361 225.335 135.563 225.456 134.587C225.625 133.229 225.414 132.199 224.824 131.497C224.257 130.798 223.569 130.399 222.759 130.298C222.069 130.213 221.403 130.312 220.764 130.595C220.148 130.881 219.526 131.409 218.899 132.178C218.292 132.973 217.649 134.066 216.969 135.457C216.648 136.095 216.251 136.759 215.779 137.45C215.306 138.141 214.734 138.759 214.061 139.305C213.41 139.877 212.643 140.314 211.759 140.616C210.899 140.92 209.897 141.001 208.754 140.86C207.658 140.724 206.696 140.387 205.868 139.849C205.037 139.335 204.358 138.67 203.83 137.855C203.299 137.064 202.925 136.183 202.707 135.213C202.485 134.267 202.437 133.293 202.561 132.293C202.729 130.935 203.171 129.708 203.887 128.612C204.625 127.543 205.524 126.626 206.586 125.863C207.669 125.127 208.792 124.553 209.956 124.141L211.298 126.774Z" fill="white"/>
<path d="M207.684 149.433C206.609 149.02 205.57 148.879 204.569 149.009C203.56 149.161 202.658 149.535 201.864 150.13C201.084 150.756 200.5 151.573 200.113 152.581C199.795 153.41 199.622 154.23 199.593 155.042C199.578 155.885 199.68 156.656 199.9 157.358C200.141 158.067 200.466 158.629 200.873 159.042L197.512 157.752C197.091 156.974 196.894 156.011 196.923 154.866C196.965 153.751 197.188 152.667 197.593 151.614C198.169 150.112 199.036 148.89 200.195 147.947C201.354 147.003 202.676 146.405 204.162 146.153C205.66 145.931 207.183 146.117 208.729 146.71C210.297 147.312 211.553 148.193 212.497 149.352C213.431 150.533 214.014 151.862 214.244 153.339C214.474 154.815 214.301 156.304 213.725 157.805C213.321 158.858 212.75 159.809 212.014 160.657C211.291 161.537 210.512 162.125 209.678 162.422L206.317 161.132C206.919 161.106 207.535 160.905 208.168 160.531C208.8 160.157 209.381 159.647 209.911 159.002C210.455 158.388 210.886 157.667 211.204 156.838C211.591 155.83 211.704 154.832 211.544 153.845C211.374 152.88 210.954 151.999 210.283 151.201C209.626 150.435 208.76 149.846 207.684 149.433Z" fill="white"/>
<path d="M205.31 173.738L191.338 164.849L192.884 162.419L206.856 171.308L205.31 173.738ZM199.95 176.259C200.4 176.09 200.759 175.906 201.027 175.707C201.316 175.521 201.59 175.226 201.847 174.821C202.234 174.213 202.385 173.641 202.3 173.103C202.215 172.566 201.955 172.059 201.518 171.582C201.069 171.126 200.511 170.685 199.842 170.26L200.538 169.166C201.652 169.875 202.511 170.692 203.117 171.618C203.73 172.577 204.09 173.531 204.197 174.481C204.304 175.431 204.151 176.23 203.739 176.878C203.417 177.384 203.049 177.805 202.637 178.14C202.232 178.508 201.721 178.752 201.105 178.871L199.95 176.259Z" fill="white"/>
<path d="M192.219 178.561C193.42 179.736 194.223 181.042 194.629 182.48C195.018 183.936 195.026 185.387 194.651 186.833C194.277 188.28 193.527 189.578 192.402 190.727C191.261 191.894 189.98 192.671 188.558 193.06C187.12 193.466 185.678 193.482 184.231 193.108C182.768 192.75 181.436 191.984 180.235 190.809C179.051 189.651 178.256 188.336 177.85 186.864C177.444 185.425 177.428 183.983 177.803 182.536C178.16 181.107 178.91 179.809 180.051 178.642C181.176 177.493 182.457 176.715 183.895 176.309C185.333 175.903 186.784 175.879 188.248 176.236C189.712 176.628 191.035 177.403 192.219 178.561ZM190.18 180.645C189.356 179.839 188.459 179.297 187.489 179.02C186.502 178.759 185.526 178.744 184.561 178.975C183.596 179.24 182.736 179.759 181.981 180.531C181.226 181.303 180.735 182.165 180.507 183.118C180.28 184.105 180.317 185.08 180.616 186.044C180.898 187.026 181.451 187.919 182.274 188.725C183.098 189.53 184.003 190.064 184.99 190.324C185.978 190.619 186.954 190.634 187.918 190.369C188.866 190.121 189.717 189.611 190.473 188.839C191.228 188.067 191.728 187.196 191.972 186.226C192.199 185.273 192.163 184.298 191.863 183.3C191.564 182.335 191.003 181.451 190.18 180.645Z" fill="white"/>
<path d="M186.212 210.758L183.853 212.41L167.752 189.404L170.112 187.753L186.212 210.758Z" fill="white"/>
<path d="M175.634 217.523L173.102 218.895L159.721 194.209L162.253 192.836L175.634 217.523Z" fill="white"/>
<path d="M137.921 230.469L135.092 231.008L129.83 203.426L132.659 202.886L137.921 230.469ZM147.825 208.423C148.163 210.191 148.085 211.769 147.592 213.158C147.104 214.57 146.313 215.735 145.217 216.653C144.122 217.57 142.843 218.169 141.382 218.447C140.014 218.708 138.758 218.593 137.614 218.103C136.47 217.613 135.494 216.785 134.685 215.62C133.857 214.483 133.275 213.03 132.938 211.262C132.605 209.518 132.612 207.953 132.958 206.567C133.281 205.186 133.885 204.057 134.768 203.18C135.651 202.303 136.777 201.734 138.144 201.473C139.606 201.195 141.015 201.28 142.371 201.73C143.727 202.18 144.892 202.972 145.866 204.105C146.839 205.239 147.493 206.678 147.825 208.423ZM144.961 208.969C144.723 207.719 144.273 206.706 143.611 205.928C142.926 205.155 142.117 204.625 141.183 204.339C140.248 204.053 139.286 204.004 138.296 204.193C137.471 204.35 136.7 204.73 135.984 205.33C135.268 205.931 134.734 206.717 134.382 207.688C134.029 208.66 133.973 209.77 134.211 211.019C134.449 212.269 134.911 213.28 135.596 214.054C136.281 214.827 137.067 215.361 137.954 215.656C138.841 215.951 139.697 216.02 140.522 215.863C141.512 215.674 142.389 215.274 143.152 214.665C143.915 214.055 144.473 213.264 144.825 212.293C145.154 211.326 145.199 210.218 144.961 208.969Z" fill="white"/>
<path d="M123.753 212.1C123.63 213.775 123.15 215.232 122.314 216.47C121.453 217.706 120.349 218.648 119.002 219.295C117.655 219.942 116.179 220.207 114.576 220.089C112.948 219.969 111.527 219.492 110.313 218.657C109.075 217.82 108.133 216.728 107.485 215.381C106.814 214.032 106.54 212.52 106.663 210.845C106.785 209.193 107.277 207.737 108.139 206.477C108.976 205.239 110.068 204.297 111.415 203.649C112.738 203.001 114.214 202.736 115.841 202.855C117.445 202.973 118.866 203.45 120.104 204.287C121.342 205.124 122.296 206.217 122.967 207.566C123.613 208.937 123.875 210.448 123.753 212.1ZM120.845 211.886C120.93 210.737 120.765 209.702 120.351 208.782C119.914 207.859 119.295 207.104 118.496 206.516C117.671 205.95 116.721 205.627 115.643 205.548C114.566 205.469 113.59 205.65 112.716 206.091C111.815 206.555 111.093 207.211 110.55 208.062C109.982 208.911 109.656 209.909 109.572 211.058C109.487 212.207 109.664 213.243 110.102 214.165C110.513 215.11 111.132 215.865 111.957 216.431C112.757 216.996 113.696 217.317 114.773 217.396C115.851 217.475 116.838 217.295 117.737 216.856C118.612 216.415 119.334 215.758 119.903 214.885C120.447 214.035 120.761 213.035 120.845 211.886Z" fill="white"/>
<path d="M98.5117 217.963L95.4825 216.813L95.4311 205.28L86.9576 214.925L86.7393 201.905L78.9902 210.554L75.961 209.405L89.0154 195.299L89.4147 208.349L98.103 198.747L98.5117 217.963Z" fill="white"/>
<path d="M63.8097 192.851C62.9889 193.945 62.6097 194.951 62.6721 195.868C62.7346 196.784 63.2266 197.588 64.1482 198.28C64.8202 198.784 65.5234 199.086 66.2578 199.187C66.9586 199.292 67.6402 199.204 68.3026 198.92C68.9458 198.623 69.5122 198.148 70.0018 197.495L76.0497 189.431L78.3537 191.159L68.4178 204.407L66.1138 202.679L67.669 200.605C66.6226 201.08 65.629 201.265 64.6882 201.16C63.7282 201.04 62.8162 200.656 61.9522 200.008C60.5506 198.956 59.7994 197.658 59.6985 196.112C59.5641 194.572 60.0945 193.004 61.2897 191.411L67.5537 183.059L69.8577 184.787L63.8097 192.851Z" fill="white"/>
<path d="M45.4194 183.479L40.4999 176.819L42.6717 175.215L47.5912 181.875L45.4194 183.479ZM39.1821 184.729L37.471 182.413L55.4244 169.152L57.1355 171.468L39.1821 184.729Z" fill="white"/>
<path d="M44.7994 168.807C43.2883 169.542 41.7874 169.857 40.2965 169.754C38.7952 169.63 37.4268 169.148 36.1912 168.307C34.9557 167.466 33.9865 166.323 33.2838 164.877C32.5706 163.409 32.2707 161.94 32.384 160.471C32.4868 158.98 32.9585 157.617 33.7991 156.381C34.6292 155.124 35.7997 154.128 37.3108 153.394C38.8003 152.671 40.3065 152.366 41.8294 152.48C43.3203 152.583 44.6835 153.054 45.919 153.895C47.1441 154.714 48.1132 155.857 48.8264 157.325C49.5291 158.771 49.8291 160.24 49.7263 161.731C49.6234 163.222 49.157 164.596 48.3269 165.853C47.4647 167.099 46.2889 168.084 44.7994 168.807ZM43.5251 166.185C44.5613 165.681 45.3738 165.02 45.9628 164.2C46.5413 163.358 46.8844 162.445 46.9922 161.458C47.068 160.461 46.8699 159.476 46.3979 158.505C45.9259 157.534 45.2797 156.78 44.4593 156.245C43.6068 155.699 42.6764 155.404 41.6679 155.36C40.6489 155.295 39.6213 155.514 38.5852 156.017C37.549 156.521 36.7417 157.193 36.1632 158.034C35.5527 158.865 35.2095 159.779 35.1338 160.776C35.0475 161.752 35.2404 162.725 35.7124 163.697C36.1843 164.668 36.8358 165.432 37.6667 165.989C38.4871 166.524 39.4176 166.819 40.4581 166.874C41.4666 166.918 42.4889 166.688 43.5251 166.185Z" fill="white"/>
<path d="M36.2384 135.64C36.7017 135.25 37.124 134.816 37.5051 134.339C37.8862 133.861 38.1772 133.333 38.3779 132.755C38.5522 132.156 38.6018 131.523 38.5269 130.855C38.4358 130.044 38.186 129.432 37.7774 129.019C37.3422 128.585 36.8027 128.404 36.1587 128.476C35.5863 128.541 35.1307 128.785 34.792 129.209C34.4267 129.613 34.145 130.115 33.9469 130.717C33.7249 131.322 33.5309 131.959 33.3646 132.63C33.1588 133.378 32.9065 134.142 32.6079 134.925C32.2828 135.686 31.8383 136.351 31.2744 136.922C30.684 137.471 29.9118 137.799 28.9577 137.906C27.9799 138.016 27.1409 137.857 26.4407 137.428C25.7378 136.976 25.1859 136.362 24.7848 135.585C24.381 134.785 24.1296 133.944 24.0306 133.062C23.9315 132.179 23.9822 131.34 24.1828 130.545C24.3806 129.726 24.6846 128.991 25.0947 128.342C25.5047 127.692 26.0011 127.165 26.5837 126.762L28.3075 128.887C27.7383 129.409 27.2897 130.039 26.9619 130.777C26.6314 131.49 26.5144 132.276 26.6108 133.134C26.6777 133.731 26.8664 134.229 27.177 134.629C27.4875 135.028 27.9171 135.198 28.4656 135.136C28.8949 135.088 29.2578 134.878 29.5542 134.507C29.8506 134.135 30.1006 133.673 30.304 133.118C30.5075 132.564 30.6963 131.988 30.8706 131.388C31.1451 130.392 31.4647 129.474 31.8296 128.636C32.1705 127.801 32.6256 127.122 33.1948 126.599C33.7614 126.053 34.5336 125.724 35.5115 125.615C36.9425 125.454 38.1939 125.845 39.2657 126.787C40.3348 127.706 40.9644 129.012 41.1545 130.705C41.2777 131.802 41.198 132.813 40.9154 133.738C40.609 134.666 40.1806 135.475 39.6301 136.165C39.0769 136.831 38.4958 137.355 37.8866 137.737L36.2384 135.64Z" fill="white"/>
<path d="M41.1063 113.351C40.9408 114.878 40.4356 116.199 39.5905 117.315C38.7241 118.404 37.6105 119.212 36.2497 119.741C34.8914 120.245 33.3652 120.406 31.6711 120.222C29.9532 120.036 28.4862 119.539 27.2701 118.732C26.0566 117.9 25.1579 116.837 24.574 115.543C23.9926 114.224 23.7899 112.754 23.9657 111.131C24.1415 109.509 24.6374 108.162 25.4535 107.092C26.2483 105.995 27.3116 105.205 28.6434 104.722C29.9752 104.239 31.512 104.091 33.2538 104.28C33.4208 104.298 33.5985 104.329 33.7868 104.374C33.9538 104.392 34.0612 104.404 34.1089 104.409L32.5847 118.475L30.151 118.211L31.4308 106.4L32.9531 107.724C32.8415 107.639 32.6703 107.548 32.4395 107.451C32.1848 107.351 31.9739 107.292 31.8069 107.274C30.8286 107.168 29.9596 107.279 29.1998 107.607C28.4427 107.911 27.8238 108.387 27.3432 109.035C26.8626 109.683 26.5718 110.472 26.471 111.403C26.3521 112.5 26.4885 113.469 26.8804 114.308C27.251 115.12 27.8545 115.789 28.6908 116.315C29.5058 116.813 30.5443 117.143 31.8063 117.304C33.0948 117.444 34.2143 117.36 35.165 117.052C36.1156 116.745 36.8722 116.223 37.4347 115.488C37.9973 114.752 38.3393 113.823 38.4608 112.702C38.5823 111.581 38.451 110.565 38.0669 109.654C37.6589 108.741 36.9862 107.931 36.0487 107.226L37.7682 105.059C39.059 106.068 39.9912 107.267 40.5648 108.657C41.1172 110.021 41.2977 111.585 41.1063 113.351Z" fill="white"/>
<path d="M45.4723 94.2208C44.9435 95.6629 44.1346 96.8233 43.0454 97.7021C41.9421 98.5501 40.6663 99.0664 39.2182 99.2512C37.7783 99.4134 36.2585 99.2012 34.6586 98.6146C33.0363 98.0197 31.7324 97.1837 30.7469 96.1066C29.7698 95.0069 29.1539 93.7586 28.8993 92.3616C28.6529 90.942 28.8107 89.4661 29.3725 87.9338C29.9344 86.4016 30.7403 85.2145 31.7904 84.3725C32.8262 83.4997 34.0486 82.9894 35.4576 82.8414C36.8667 82.6935 38.3937 82.9211 40.0386 83.5243C40.1963 83.5821 40.3612 83.6553 40.5332 83.744C40.6909 83.8018 40.7923 83.839 40.8374 83.8555L35.9667 97.1387L33.6683 96.2959L37.7582 85.1421L38.9164 86.7938C38.8285 86.6849 38.6843 86.5553 38.4838 86.4051C38.2607 86.2466 38.0703 86.1384 37.9126 86.0806C36.9887 85.7418 36.1186 85.6401 35.3021 85.7752C34.4939 85.8879 33.7785 86.2007 33.1558 86.7137C32.5332 87.2267 32.0607 87.9226 31.7385 88.8014C31.3584 89.8379 31.2574 90.8106 31.4354 91.7194C31.5991 92.5974 32.0235 93.3921 32.7085 94.1034C33.3792 94.7839 34.3075 95.3544 35.4935 95.8148C36.7103 96.261 37.817 96.4495 38.8138 96.3805C39.8105 96.3114 40.6705 95.9877 41.3938 95.4093C42.1171 94.831 42.6729 94.0123 43.0613 92.9532C43.4496 91.8942 43.5672 90.8765 43.414 89.9C43.2382 88.9153 42.7804 87.9678 42.0406 87.0575L44.232 85.3686C45.2414 86.659 45.8569 88.0478 46.0785 89.535C46.2858 90.9914 46.0837 92.5533 45.4723 94.2208Z" fill="white"/>
<path d="M40.6743 66.5003L45.6423 59.8762L47.8023 61.4962L42.8343 68.1203L40.6743 66.5003ZM37.6863 60.8843L39.4142 58.5803L57.2703 71.9722L55.5423 74.2762L37.6863 60.8843Z" fill="white"/>
<path d="M44.2842 44.1995L63.4053 64.7632L61.2962 66.7244L42.175 46.1606L44.2842 44.1995ZM62.2095 52.1108C61.278 51.109 60.3555 50.5575 59.4422 50.4564C58.5464 50.3389 57.6679 50.6806 56.8067 51.4814C56.1916 52.0534 55.7693 52.6918 55.5399 53.3967C55.328 54.0852 55.3028 54.7806 55.464 55.4827C55.6429 56.1685 56.002 56.8014 56.5413 57.3814L55.8558 58.0187C54.957 57.0521 54.3489 56.028 54.0316 54.9466C53.6979 53.8477 53.6432 52.7843 53.8674 51.7566C54.1091 50.7125 54.6518 49.7982 55.4954 49.0138C56.3391 48.2293 57.2319 47.7269 58.1739 47.5064C59.1335 47.2695 60.1071 47.3474 61.0948 47.7399C62.1 48.1161 63.0929 48.8315 64.0735 49.886L71.1826 57.5315L69.0735 59.4927L62.2095 52.1108Z" fill="white"/>
<path d="M81.9911 51.0078C80.6489 51.7547 79.2784 52.1053 77.8797 52.0596C76.4904 51.9813 75.187 51.5393 73.9696 50.7336C72.7732 49.9162 71.7607 48.763 70.9321 47.274C70.0919 45.764 69.6503 44.2794 69.6074 42.8202C69.5854 41.3493 69.9341 40.0017 70.6536 38.7774C71.394 37.5414 72.4773 36.5266 73.9033 35.7331C75.3294 34.9395 76.715 34.5668 78.0601 34.6148C79.4144 34.6302 80.6735 35.0419 81.8373 35.85C83.001 36.6581 84.0089 37.8276 84.8608 39.3586C84.9425 39.5054 85.0195 39.6685 85.0919 39.8479C85.1736 39.9947 85.2261 40.0891 85.2494 40.131L72.8866 47.0104L71.6963 44.8713L82.0773 39.0947L81.8758 41.1019C81.8804 40.9621 81.8558 40.7698 81.802 40.525C81.7366 40.2593 81.663 40.0531 81.5813 39.9063C81.1028 39.0464 80.5103 38.4011 79.8037 37.9704C79.118 37.5279 78.3719 37.2977 77.5654 37.2796C76.7588 37.2615 75.9466 37.48 75.1287 37.9351C74.164 38.4719 73.4523 39.1426 72.9936 39.9472C72.5442 40.7191 72.3467 41.598 72.401 42.584C72.4646 43.5374 72.7952 44.5757 73.3927 45.6988C74.0229 46.8313 74.7379 47.6968 75.5379 48.2954C76.3379 48.8939 77.2006 49.2103 78.1261 49.2447C79.0515 49.279 80.0071 49.0219 80.9928 48.4734C81.9784 47.9249 82.7321 47.2309 83.2537 46.3914C83.7636 45.5309 84.0356 44.5143 84.0698 43.3418L86.8322 43.4937C86.7541 45.1302 86.3133 46.5839 85.51 47.8549C84.7159 49.0933 83.543 50.1442 81.9911 51.0078Z" fill="white"/>
<path d="M102.922 25.4465L105.963 41.725L103.132 42.2537L100.091 25.9752L102.922 25.4465ZM108.423 27.6419C107.993 27.4293 107.613 27.2926 107.284 27.232C106.951 27.1477 106.549 27.1496 106.077 27.2377C105.369 27.3699 104.848 27.6504 104.513 28.0792C104.178 28.508 103.985 29.0445 103.934 29.6888C103.907 30.3286 103.967 31.0378 104.112 31.8163L102.838 32.0543C102.596 30.7567 102.606 29.5706 102.869 28.496C103.152 27.3935 103.603 26.479 104.225 25.7526C104.846 25.0262 105.534 24.5925 106.289 24.4515C106.879 24.3413 107.437 24.3225 107.963 24.3951C108.508 24.4397 109.035 24.6465 109.544 25.0154L108.423 27.6419Z" fill="white"/>
<path d="M122.96 40.5283C121.424 40.4986 120.063 40.1123 118.878 39.3693C117.716 38.6027 116.812 37.5651 116.165 36.2563C115.542 34.9481 115.247 33.4421 115.28 31.7384C115.314 30.0107 115.679 28.5055 116.376 27.2227C117.096 25.9404 118.076 24.9511 119.313 24.2548C120.575 23.5591 122.022 23.2269 123.653 23.2584C125.285 23.2899 126.67 23.6647 127.808 24.3828C128.971 25.0774 129.852 26.0666 130.452 27.3504C131.051 28.6342 131.334 30.1519 131.3 31.9036C131.297 32.0716 131.281 32.2513 131.254 32.4428C131.25 32.6108 131.248 32.7188 131.247 32.7667L117.102 32.4937L117.149 30.0462L129.027 30.2754L127.843 31.9089C127.918 31.7903 127.993 31.6117 128.07 31.3732C128.147 31.1106 128.187 30.8953 128.19 30.7274C128.209 29.7435 128.022 28.8878 127.628 28.16C127.258 27.4328 126.728 26.8584 126.04 26.4371C125.353 26.0157 124.541 25.796 123.605 25.778C122.501 25.7566 121.549 25.9783 120.747 26.4429C119.971 26.884 119.358 27.5443 118.909 28.4238C118.484 29.2798 118.248 30.3434 118.199 31.6147C118.174 32.9105 118.357 34.0182 118.747 34.9379C119.137 35.8576 119.724 36.5651 120.506 37.0603C121.289 37.5555 122.244 37.8139 123.372 37.8357C124.5 37.8575 125.5 37.6367 126.373 37.1735C127.247 36.6863 127.993 35.9445 128.613 34.9483L130.924 36.4692C130.033 37.8443 128.921 38.879 127.587 39.5734C126.278 40.2442 124.736 40.5625 122.96 40.5283Z" fill="white"/>
<path d="M140.004 33.5552C139.711 34.6693 139.683 35.7168 139.922 36.6977C140.184 37.6846 140.654 38.5402 141.332 39.2644C142.039 39.9715 142.915 40.4623 143.96 40.7369C144.819 40.9626 145.653 41.0455 146.463 40.9854C147.302 40.9082 148.058 40.7223 148.731 40.4277C149.41 40.11 149.933 39.7262 150.299 39.2766L149.384 42.7583C148.656 43.2618 147.721 43.562 146.579 43.6588C145.466 43.7385 144.364 43.635 143.273 43.3482C141.718 42.9394 140.408 42.2105 139.344 41.1614C138.28 40.1124 137.541 38.8636 137.128 37.4149C136.744 35.9491 136.762 34.4154 137.183 32.8138C137.61 31.189 138.348 29.8445 139.398 28.7802C140.47 27.7221 141.727 26.9979 143.17 26.6078C144.612 26.2178 146.111 26.2271 147.666 26.6359C148.757 26.9227 149.765 27.386 150.688 28.0258C151.641 28.6486 152.311 29.3581 152.697 30.1545L151.782 33.6362C151.69 33.0413 151.424 32.4502 150.983 31.8627C150.541 31.2753 149.971 30.7532 149.272 30.2965C148.603 29.8227 147.839 29.473 146.98 29.2472C145.935 28.9727 144.931 28.9693 143.968 29.2371C143.027 29.5109 142.197 30.0248 141.478 30.7787C140.788 31.5155 140.296 32.441 140.004 33.5552Z" fill="white"/>
<path d="M163.746 25.3816C163.978 24.8807 164.349 24.5367 164.859 24.3497C165.39 24.1727 165.896 24.1951 166.375 24.417C166.876 24.6489 167.22 25.0198 167.407 25.5296C167.594 26.0395 167.571 26.5448 167.339 27.0457C167.118 27.5248 166.747 27.8688 166.227 28.0777C165.717 28.2648 165.212 28.2423 164.711 28.0104C164.232 27.7885 163.888 27.4176 163.679 26.8977C163.502 26.3661 163.524 25.8607 163.746 25.3816ZM161.362 31.8153L163.975 33.0256L157.016 48.0524L154.403 46.8422L161.362 31.8153Z" fill="white"/>
<path d="M161.255 59.2039L158.932 57.5012L173.405 37.7575L175.728 39.4601L161.255 59.2039ZM182.011 54.3322C180.961 55.7646 179.753 56.7834 178.387 57.3889C177.021 57.9943 175.628 58.2087 174.21 58.0323C172.812 57.87 171.503 57.3419 170.283 56.448C169.18 55.6392 168.408 54.642 167.968 53.4564C167.547 52.2849 167.478 50.9992 167.76 49.5992C168.062 48.2134 168.737 46.8043 169.787 45.372C170.852 43.9202 171.992 42.8516 173.208 42.1663C174.459 41.4757 175.706 41.1549 176.949 41.2036C178.213 41.2666 179.396 41.7025 180.499 42.5112C181.719 43.4051 182.616 44.4945 183.192 45.7795C183.787 47.0787 184.001 48.4708 183.835 49.9559C183.683 51.4217 183.075 52.8804 182.011 54.3322ZM179.659 52.6082C180.411 51.5823 180.837 50.5552 180.936 49.5269C181.054 48.5127 180.9 47.5663 180.473 46.6878C180.065 45.8234 179.445 45.0861 178.612 44.476C177.935 43.9794 177.132 43.6738 176.205 43.5591C175.277 43.4445 174.338 43.5892 173.387 43.9932C172.436 44.3973 171.585 45.1122 170.833 46.1381C170.081 47.164 169.655 48.1912 169.556 49.2195C169.457 50.2479 169.601 51.1871 169.99 52.0373C170.379 52.8875 170.912 53.5609 171.589 54.0575C172.421 54.6677 173.311 55.0371 174.258 55.166C175.225 55.309 176.174 55.1714 177.105 54.7531C178.056 54.3491 178.907 53.6341 179.659 52.6082Z" fill="white"/>
<path d="M184.714 70.1531C183.744 68.9622 183.159 67.6742 182.959 66.2891C182.793 64.9075 183 63.5469 183.581 62.2073C184.176 60.8864 185.135 59.6878 186.456 58.6116C187.795 57.5202 189.18 56.8258 190.609 56.5283C192.053 56.2493 193.441 56.357 194.773 56.8512C196.119 57.3641 197.308 58.2532 198.338 59.5185C199.369 60.7838 199.978 62.0828 200.166 63.4155C200.388 64.7517 200.203 66.0634 199.611 67.3506C199.019 68.6377 198.044 69.8346 196.685 70.9411C196.555 71.0472 196.408 71.1516 196.244 71.2543C196.114 71.3604 196.03 71.4286 195.993 71.4589L187.057 60.4898L188.955 58.9437L196.458 68.1544L194.447 68.3071C194.585 68.2871 194.77 68.2293 195.002 68.1335C195.252 68.0226 195.442 67.9141 195.572 67.808C196.335 67.1865 196.867 66.4903 197.168 65.7192C197.483 64.9667 197.579 64.1918 197.456 63.3945C197.333 62.5972 196.976 61.8358 196.385 61.1101C195.687 60.2541 194.902 59.6707 194.03 59.3598C193.192 59.0524 192.292 59.0116 191.33 59.2375C190.403 59.4669 189.438 59.974 188.437 60.7587C187.432 61.5772 186.705 62.4327 186.256 63.325C185.806 64.2173 185.646 65.1221 185.774 66.0393C185.902 66.9565 186.322 67.8524 187.034 68.7269C187.747 69.6015 188.562 70.2221 189.48 70.5888C190.416 70.9404 191.465 71.0304 192.625 70.859L192.959 73.6054C191.334 73.8147 189.825 73.635 188.433 73.0663C187.075 72.5011 185.835 71.53 184.714 70.1531Z" fill="white"/>
<path d="M197.547 79.0887C197.248 79.6156 197.003 80.1692 196.812 80.7495C196.621 81.3297 196.532 81.9257 196.545 82.5375C196.59 83.1598 196.763 83.771 197.066 84.371C197.434 85.0996 197.881 85.5864 198.407 85.8315C198.966 86.0871 199.535 86.0691 200.114 85.7773C200.628 85.5179 200.97 85.1303 201.14 84.6145C201.342 84.1094 201.432 83.5402 201.408 82.907C201.406 82.2631 201.366 81.5977 201.288 80.9111C201.221 80.1385 201.192 79.3336 201.199 78.4964C201.24 77.6698 201.425 76.891 201.755 76.16C202.117 75.4397 202.727 74.8633 203.584 74.431C204.463 73.9879 205.305 73.8455 206.11 74.0037C206.927 74.1833 207.658 74.5672 208.304 75.1553C208.961 75.7648 209.489 76.466 209.889 77.2589C210.289 78.0517 210.533 78.8559 210.622 79.6713C210.721 80.5082 210.692 81.3025 210.534 82.0544C210.375 82.8063 210.093 83.4727 209.687 84.0537L207.332 82.6612C207.684 81.973 207.885 81.2264 207.936 80.4212C207.998 79.6375 207.834 78.8599 207.445 78.0884C207.175 77.5527 206.824 77.1514 206.394 76.8846C205.964 76.6177 205.502 76.6086 205.009 76.8572C204.624 77.0517 204.357 77.3746 204.208 77.8259C204.059 78.2772 203.986 78.798 203.988 79.3884C203.99 79.9787 204.013 80.585 204.059 81.2074C204.148 82.2375 204.167 83.2088 204.117 84.1213C204.088 85.0229 203.897 85.8179 203.546 86.506C203.205 87.2156 202.595 87.7919 201.716 88.235C200.43 88.8834 199.121 88.9524 197.789 88.4418C196.467 87.9526 195.422 86.9473 194.655 85.4259C194.158 84.4401 193.881 83.4644 193.824 82.4986C193.788 81.522 193.908 80.6146 194.184 79.7765C194.471 78.9598 194.834 78.2662 195.272 77.6958L197.547 79.0887Z" fill="white"/>
<path d="M210.345 102.017C211.217 101.847 211.871 101.94 212.307 102.295C212.743 102.65 213.018 103.123 213.132 103.711C213.252 104.324 213.176 104.877 212.905 105.369C212.639 105.886 212.07 106.229 211.198 106.399C210.35 106.564 209.694 106.459 209.23 106.085C208.771 105.734 208.481 105.253 208.362 104.64C208.247 104.051 208.337 103.508 208.632 103.011C208.926 102.513 209.497 102.182 210.345 102.017Z" fill="white"/>
</svg>
